<svg xmlns="http://www.w3.org/2000/svg" viewBox="0 0 800 1000" role="img">
  <rect width="800" height="1000" fill="#B3341F"/>
  <g><line x1="110" y1="120" x2="110" y2="880" stroke="#C9A24B" stroke-width="1.4" opacity="0.8"/>
    <line x1="105" y1="140" x2="115" y2="149" stroke="#E6C87A" stroke-width="2.2" opacity="0.77"/><line x1="105" y1="158" x2="115" y2="174" stroke="#E6C87A" stroke-width="2.2" opacity="0.80"/><line x1="105" y1="191" x2="115" y2="198" stroke="#E6C87A" stroke-width="2.2" opacity="0.46"/><line x1="105" y1="269" x2="115" y2="279" stroke="#E6C87A" stroke-width="2.2" opacity="0.63"/><line x1="105" y1="332" x2="115" y2="353" stroke="#E6C87A" stroke-width="2.2" opacity="0.80"/><line x1="105" y1="373" x2="115" y2="384" stroke="#E6C87A" stroke-width="2.2" opacity="0.64"/><line x1="105" y1="395" x2="115" y2="407" stroke="#E6C87A" stroke-width="2.2" opacity="0.44"/><line x1="105" y1="419" x2="115" y2="439" stroke="#E6C87A" stroke-width="2.2" opacity="0.75"/><line x1="105" y1="459" x2="115" y2="478" stroke="#E6C87A" stroke-width="2.2" opacity="0.75"/><line x1="105" y1="523" x2="115" y2="531" stroke="#E6C87A" stroke-width="2.2" opacity="0.74"/><line x1="105" y1="612" x2="115" y2="625" stroke="#E6C87A" stroke-width="2.2" opacity="0.48"/><line x1="105" y1="638" x2="115" y2="660" stroke="#E6C87A" stroke-width="2.2" opacity="0.61"/><line x1="105" y1="743" x2="115" y2="761" stroke="#E6C87A" stroke-width="2.2" opacity="0.47"/><line x1="105" y1="779" x2="115" y2="787" stroke="#E6C87A" stroke-width="2.2" opacity="0.63"/><line x1="105" y1="796" x2="115" y2="814" stroke="#E6C87A" stroke-width="2.2" opacity="0.85"/>
    <line x1="163" y1="120" x2="163" y2="880" stroke="#C9A24B" stroke-width="1.4" opacity="0.8"/>
    <line x1="158" y1="140" x2="168" y2="152" stroke="#E6C87A" stroke-width="2.2" opacity="0.50"/><line x1="158" y1="184" x2="168" y2="204" stroke="#E6C87A" stroke-width="2.2" opacity="0.61"/><line x1="158" y1="223" x2="168" y2="238" stroke="#E6C87A" stroke-width="2.2" opacity="0.48"/><line x1="158" y1="253" x2="168" y2="260" stroke="#E6C87A" stroke-width="2.2" opacity="0.77"/><line x1="158" y1="326" x2="168" y2="333" stroke="#E6C87A" stroke-width="2.2" opacity="0.42"/><line x1="158" y1="341" x2="168" y2="360" stroke="#E6C87A" stroke-width="2.2" opacity="0.57"/><line x1="158" y1="404" x2="168" y2="418" stroke="#E6C87A" stroke-width="2.2" opacity="0.45"/><line x1="158" y1="432" x2="168" y2="447" stroke="#E6C87A" stroke-width="2.2" opacity="0.61"/><line x1="158" y1="462" x2="168" y2="474" stroke="#E6C87A" stroke-width="2.2" opacity="0.41"/><line x1="158" y1="487" x2="168" y2="504" stroke="#E6C87A" stroke-width="2.2" opacity="0.68"/><line x1="158" y1="551" x2="168" y2="566" stroke="#E6C87A" stroke-width="2.2" opacity="0.50"/><line x1="158" y1="581" x2="168" y2="594" stroke="#E6C87A" stroke-width="2.2" opacity="0.73"/><line x1="158" y1="638" x2="168" y2="646" stroke="#E6C87A" stroke-width="2.2" opacity="0.69"/><line x1="158" y1="689" x2="168" y2="705" stroke="#E6C87A" stroke-width="2.2" opacity="0.64"/><line x1="158" y1="721" x2="168" y2="738" stroke="#E6C87A" stroke-width="2.2" opacity="0.62"/><line x1="158" y1="754" x2="168" y2="771" stroke="#E6C87A" stroke-width="2.2" opacity="0.63"/><line x1="158" y1="787" x2="168" y2="806" stroke="#E6C87A" stroke-width="2.2" opacity="0.65"/><line x1="158" y1="826" x2="168" y2="833" stroke="#E6C87A" stroke-width="2.2" opacity="0.56"/><line x1="158" y1="840" x2="168" y2="853" stroke="#E6C87A" stroke-width="2.2" opacity="0.79"/>
    <line x1="216" y1="120" x2="216" y2="880" stroke="#C9A24B" stroke-width="1.4" opacity="0.8"/>
    <line x1="211" y1="140" x2="221" y2="162" stroke="#E6C87A" stroke-width="2.2" opacity="0.49"/><line x1="211" y1="270" x2="221" y2="285" stroke="#E6C87A" stroke-width="2.2" opacity="0.59"/><line x1="211" y1="300" x2="221" y2="319" stroke="#E6C87A" stroke-width="2.2" opacity="0.66"/><line x1="211" y1="338" x2="221" y2="358" stroke="#E6C87A" stroke-width="2.2" opacity="0.38"/><line x1="211" y1="400" x2="221" y2="417" stroke="#E6C87A" stroke-width="2.2" opacity="0.48"/><line x1="211" y1="434" x2="221" y2="453" stroke="#E6C87A" stroke-width="2.2" opacity="0.73"/><line x1="211" y1="546" x2="221" y2="554" stroke="#E6C87A" stroke-width="2.2" opacity="0.67"/><line x1="211" y1="561" x2="221" y2="579" stroke="#E6C87A" stroke-width="2.2" opacity="0.76"/><line x1="211" y1="597" x2="221" y2="617" stroke="#E6C87A" stroke-width="2.2" opacity="0.73"/><line x1="211" y1="664" x2="221" y2="674" stroke="#E6C87A" stroke-width="2.2" opacity="0.59"/><line x1="211" y1="685" x2="221" y2="707" stroke="#E6C87A" stroke-width="2.2" opacity="0.55"/><line x1="211" y1="728" x2="221" y2="744" stroke="#E6C87A" stroke-width="2.2" opacity="0.56"/><line x1="211" y1="759" x2="221" y2="770" stroke="#E6C87A" stroke-width="2.2" opacity="0.36"/><line x1="211" y1="782" x2="221" y2="789" stroke="#E6C87A" stroke-width="2.2" opacity="0.74"/><line x1="211" y1="796" x2="221" y2="805" stroke="#E6C87A" stroke-width="2.2" opacity="0.49"/><line x1="211" y1="850" x2="221" y2="860" stroke="#E6C87A" stroke-width="2.2" opacity="0.84"/>
    <line x1="269" y1="120" x2="269" y2="880" stroke="#C9A24B" stroke-width="1.4" opacity="0.8"/>
    <line x1="264" y1="140" x2="274" y2="161" stroke="#E6C87A" stroke-width="2.2" opacity="0.46"/><line x1="264" y1="221" x2="274" y2="237" stroke="#E6C87A" stroke-width="2.2" opacity="0.42"/><line x1="264" y1="267" x2="274" y2="279" stroke="#E6C87A" stroke-width="2.2" opacity="0.78"/><line x1="264" y1="312" x2="274" y2="333" stroke="#E6C87A" stroke-width="2.2" opacity="0.65"/><line x1="264" y1="355" x2="274" y2="373" stroke="#E6C87A" stroke-width="2.2" opacity="0.37"/><line x1="264" y1="425" x2="274" y2="445" stroke="#E6C87A" stroke-width="2.2" opacity="0.69"/><line x1="264" y1="499" x2="274" y2="511" stroke="#E6C87A" stroke-width="2.2" opacity="0.56"/><line x1="264" y1="524" x2="274" y2="540" stroke="#E6C87A" stroke-width="2.2" opacity="0.49"/><line x1="264" y1="602" x2="274" y2="614" stroke="#E6C87A" stroke-width="2.2" opacity="0.69"/><line x1="264" y1="625" x2="274" y2="634" stroke="#E6C87A" stroke-width="2.2" opacity="0.66"/><line x1="264" y1="642" x2="274" y2="657" stroke="#E6C87A" stroke-width="2.2" opacity="0.81"/><line x1="264" y1="672" x2="274" y2="681" stroke="#E6C87A" stroke-width="2.2" opacity="0.78"/><line x1="264" y1="689" x2="274" y2="707" stroke="#E6C87A" stroke-width="2.2" opacity="0.71"/><line x1="264" y1="725" x2="274" y2="738" stroke="#E6C87A" stroke-width="2.2" opacity="0.71"/><line x1="264" y1="751" x2="274" y2="761" stroke="#E6C87A" stroke-width="2.2" opacity="0.67"/><line x1="264" y1="772" x2="274" y2="792" stroke="#E6C87A" stroke-width="2.2" opacity="0.82"/><line x1="264" y1="812" x2="274" y2="827" stroke="#E6C87A" stroke-width="2.2" opacity="0.36"/><line x1="264" y1="842" x2="274" y2="850" stroke="#E6C87A" stroke-width="2.2" opacity="0.43"/>
    <line x1="322" y1="120" x2="322" y2="880" stroke="#C9A24B" stroke-width="1.4" opacity="0.8"/>
    <line x1="317" y1="198" x2="327" y2="219" stroke="#E6C87A" stroke-width="2.2" opacity="0.59"/><line x1="317" y1="240" x2="327" y2="249" stroke="#E6C87A" stroke-width="2.2" opacity="0.57"/><line x1="317" y1="258" x2="327" y2="274" stroke="#E6C87A" stroke-width="2.2" opacity="0.55"/><line x1="317" y1="291" x2="327" y2="301" stroke="#E6C87A" stroke-width="2.2" opacity="0.44"/><line x1="317" y1="312" x2="327" y2="319" stroke="#E6C87A" stroke-width="2.2" opacity="0.42"/><line x1="317" y1="326" x2="327" y2="342" stroke="#E6C87A" stroke-width="2.2" opacity="0.41"/><line x1="317" y1="454" x2="327" y2="473" stroke="#E6C87A" stroke-width="2.2" opacity="0.48"/><line x1="317" y1="526" x2="327" y2="534" stroke="#E6C87A" stroke-width="2.2" opacity="0.36"/><line x1="317" y1="541" x2="327" y2="561" stroke="#E6C87A" stroke-width="2.2" opacity="0.41"/><line x1="317" y1="581" x2="327" y2="591" stroke="#E6C87A" stroke-width="2.2" opacity="0.52"/><line x1="317" y1="638" x2="327" y2="647" stroke="#E6C87A" stroke-width="2.2" opacity="0.74"/><line x1="317" y1="656" x2="327" y2="676" stroke="#E6C87A" stroke-width="2.2" opacity="0.82"/><line x1="317" y1="696" x2="327" y2="716" stroke="#E6C87A" stroke-width="2.2" opacity="0.79"/><line x1="317" y1="736" x2="327" y2="751" stroke="#E6C87A" stroke-width="2.2" opacity="0.60"/><line x1="317" y1="799" x2="327" y2="816" stroke="#E6C87A" stroke-width="2.2" opacity="0.66"/><line x1="317" y1="833" x2="327" y2="847" stroke="#E6C87A" stroke-width="2.2" opacity="0.46"/>
    <line x1="375" y1="120" x2="375" y2="880" stroke="#C9A24B" stroke-width="1.4" opacity="0.8"/>
    <line x1="370" y1="140" x2="380" y2="161" stroke="#E6C87A" stroke-width="2.2" opacity="0.68"/><line x1="370" y1="182" x2="380" y2="193" stroke="#E6C87A" stroke-width="2.2" opacity="0.78"/><line x1="370" y1="204" x2="380" y2="222" stroke="#E6C87A" stroke-width="2.2" opacity="0.49"/><line x1="370" y1="240" x2="380" y2="249" stroke="#E6C87A" stroke-width="2.2" opacity="0.76"/><line x1="370" y1="319" x2="380" y2="337" stroke="#E6C87A" stroke-width="2.2" opacity="0.60"/><line x1="370" y1="356" x2="380" y2="364" stroke="#E6C87A" stroke-width="2.2" opacity="0.44"/><line x1="370" y1="373" x2="380" y2="384" stroke="#E6C87A" stroke-width="2.2" opacity="0.74"/><line x1="370" y1="430" x2="380" y2="446" stroke="#E6C87A" stroke-width="2.2" opacity="0.56"/><line x1="370" y1="462" x2="380" y2="475" stroke="#E6C87A" stroke-width="2.2" opacity="0.79"/><line x1="370" y1="488" x2="380" y2="507" stroke="#E6C87A" stroke-width="2.2" opacity="0.36"/><line x1="370" y1="526" x2="380" y2="545" stroke="#E6C87A" stroke-width="2.2" opacity="0.85"/><line x1="370" y1="564" x2="380" y2="576" stroke="#E6C87A" stroke-width="2.2" opacity="0.61"/><line x1="370" y1="588" x2="380" y2="599" stroke="#E6C87A" stroke-width="2.2" opacity="0.66"/><line x1="370" y1="642" x2="380" y2="658" stroke="#E6C87A" stroke-width="2.2" opacity="0.39"/><line x1="370" y1="748" x2="380" y2="759" stroke="#E6C87A" stroke-width="2.2" opacity="0.82"/><line x1="370" y1="770" x2="380" y2="778" stroke="#E6C87A" stroke-width="2.2" opacity="0.65"/><line x1="370" y1="787" x2="380" y2="803" stroke="#E6C87A" stroke-width="2.2" opacity="0.48"/><line x1="370" y1="819" x2="380" y2="827" stroke="#E6C87A" stroke-width="2.2" opacity="0.36"/><line x1="370" y1="851" x2="380" y2="865" stroke="#E6C87A" stroke-width="2.2" opacity="0.83"/>
    <line x1="428" y1="120" x2="428" y2="880" stroke="#C9A24B" stroke-width="1.4" opacity="0.8"/>
    <line x1="423" y1="140" x2="433" y2="161" stroke="#E6C87A" stroke-width="2.2" opacity="0.83"/><line x1="423" y1="206" x2="433" y2="228" stroke="#E6C87A" stroke-width="2.2" opacity="0.43"/><line x1="423" y1="250" x2="433" y2="260" stroke="#E6C87A" stroke-width="2.2" opacity="0.40"/><line x1="423" y1="270" x2="433" y2="280" stroke="#E6C87A" stroke-width="2.2" opacity="0.43"/><line x1="423" y1="290" x2="433" y2="311" stroke="#E6C87A" stroke-width="2.2" opacity="0.73"/><line x1="423" y1="331" x2="433" y2="343" stroke="#E6C87A" stroke-width="2.2" opacity="0.71"/><line x1="423" y1="381" x2="433" y2="398" stroke="#E6C87A" stroke-width="2.2" opacity="0.81"/><line x1="423" y1="414" x2="433" y2="429" stroke="#E6C87A" stroke-width="2.2" opacity="0.63"/><line x1="423" y1="444" x2="433" y2="463" stroke="#E6C87A" stroke-width="2.2" opacity="0.76"/><line x1="423" y1="520" x2="433" y2="542" stroke="#E6C87A" stroke-width="2.2" opacity="0.76"/><line x1="423" y1="564" x2="433" y2="581" stroke="#E6C87A" stroke-width="2.2" opacity="0.52"/><line x1="423" y1="599" x2="433" y2="610" stroke="#E6C87A" stroke-width="2.2" opacity="0.54"/><line x1="423" y1="636" x2="433" y2="654" stroke="#E6C87A" stroke-width="2.2" opacity="0.53"/><line x1="423" y1="673" x2="433" y2="685" stroke="#E6C87A" stroke-width="2.2" opacity="0.48"/><line x1="423" y1="698" x2="433" y2="707" stroke="#E6C87A" stroke-width="2.2" opacity="0.45"/><line x1="423" y1="717" x2="433" y2="727" stroke="#E6C87A" stroke-width="2.2" opacity="0.36"/><line x1="423" y1="798" x2="433" y2="811" stroke="#E6C87A" stroke-width="2.2" opacity="0.74"/><line x1="423" y1="824" x2="433" y2="838" stroke="#E6C87A" stroke-width="2.2" opacity="0.76"/>
    <line x1="481" y1="120" x2="481" y2="880" stroke="#C9A24B" stroke-width="1.4" opacity="0.8"/>
    <line x1="476" y1="140" x2="486" y2="151" stroke="#E6C87A" stroke-width="2.2" opacity="0.67"/><line x1="476" y1="198" x2="486" y2="217" stroke="#E6C87A" stroke-width="2.2" opacity="0.72"/><line x1="476" y1="267" x2="486" y2="288" stroke="#E6C87A" stroke-width="2.2" opacity="0.64"/><line x1="476" y1="308" x2="486" y2="324" stroke="#E6C87A" stroke-width="2.2" opacity="0.83"/><line x1="476" y1="340" x2="486" y2="352" stroke="#E6C87A" stroke-width="2.2" opacity="0.73"/><line x1="476" y1="387" x2="486" y2="399" stroke="#E6C87A" stroke-width="2.2" opacity="0.60"/><line x1="476" y1="474" x2="486" y2="494" stroke="#E6C87A" stroke-width="2.2" opacity="0.41"/><line x1="476" y1="514" x2="486" y2="531" stroke="#E6C87A" stroke-width="2.2" opacity="0.40"/><line x1="476" y1="588" x2="486" y2="596" stroke="#E6C87A" stroke-width="2.2" opacity="0.83"/><line x1="476" y1="604" x2="486" y2="612" stroke="#E6C87A" stroke-width="2.2" opacity="0.38"/><line x1="476" y1="619" x2="486" y2="639" stroke="#E6C87A" stroke-width="2.2" opacity="0.39"/><line x1="476" y1="679" x2="486" y2="695" stroke="#E6C87A" stroke-width="2.2" opacity="0.51"/><line x1="476" y1="712" x2="486" y2="733" stroke="#E6C87A" stroke-width="2.2" opacity="0.53"/><line x1="476" y1="790" x2="486" y2="798" stroke="#E6C87A" stroke-width="2.2" opacity="0.85"/><line x1="476" y1="806" x2="486" y2="822" stroke="#E6C87A" stroke-width="2.2" opacity="0.59"/><line x1="476" y1="838" x2="486" y2="856" stroke="#E6C87A" stroke-width="2.2" opacity="0.82"/>
    <line x1="534" y1="120" x2="534" y2="880" stroke="#C9A24B" stroke-width="1.4" opacity="0.8"/>
    <line x1="529" y1="190" x2="539" y2="201" stroke="#E6C87A" stroke-width="2.2" opacity="0.60"/><line x1="529" y1="211" x2="539" y2="230" stroke="#E6C87A" stroke-width="2.2" opacity="0.48"/><line x1="529" y1="249" x2="539" y2="261" stroke="#E6C87A" stroke-width="2.2" opacity="0.53"/><line x1="529" y1="341" x2="539" y2="360" stroke="#E6C87A" stroke-width="2.2" opacity="0.57"/><line x1="529" y1="403" x2="539" y2="418" stroke="#E6C87A" stroke-width="2.2" opacity="0.83"/><line x1="529" y1="460" x2="539" y2="469" stroke="#E6C87A" stroke-width="2.2" opacity="0.82"/><line x1="529" y1="477" x2="539" y2="484" stroke="#E6C87A" stroke-width="2.2" opacity="0.71"/><line x1="529" y1="516" x2="539" y2="528" stroke="#E6C87A" stroke-width="2.2" opacity="0.65"/><line x1="529" y1="539" x2="539" y2="551" stroke="#E6C87A" stroke-width="2.2" opacity="0.63"/><line x1="529" y1="562" x2="539" y2="572" stroke="#E6C87A" stroke-width="2.2" opacity="0.59"/><line x1="529" y1="583" x2="539" y2="593" stroke="#E6C87A" stroke-width="2.2" opacity="0.66"/><line x1="529" y1="636" x2="539" y2="655" stroke="#E6C87A" stroke-width="2.2" opacity="0.49"/><line x1="529" y1="674" x2="539" y2="683" stroke="#E6C87A" stroke-width="2.2" opacity="0.73"/><line x1="529" y1="693" x2="539" y2="700" stroke="#E6C87A" stroke-width="2.2" opacity="0.51"/><line x1="529" y1="708" x2="539" y2="726" stroke="#E6C87A" stroke-width="2.2" opacity="0.48"/><line x1="529" y1="744" x2="539" y2="763" stroke="#E6C87A" stroke-width="2.2" opacity="0.81"/><line x1="529" y1="782" x2="539" y2="803" stroke="#E6C87A" stroke-width="2.2" opacity="0.72"/><line x1="529" y1="824" x2="539" y2="831" stroke="#E6C87A" stroke-width="2.2" opacity="0.39"/><line x1="529" y1="839" x2="539" y2="861" stroke="#E6C87A" stroke-width="2.2" opacity="0.56"/>
    <line x1="587" y1="120" x2="587" y2="880" stroke="#C9A24B" stroke-width="1.4" opacity="0.8"/>
    <line x1="582" y1="140" x2="592" y2="151" stroke="#E6C87A" stroke-width="2.2" opacity="0.63"/><line x1="582" y1="202" x2="592" y2="217" stroke="#E6C87A" stroke-width="2.2" opacity="0.69"/><line x1="582" y1="232" x2="592" y2="241" stroke="#E6C87A" stroke-width="2.2" opacity="0.40"/><line x1="582" y1="249" x2="592" y2="269" stroke="#E6C87A" stroke-width="2.2" opacity="0.75"/><line x1="582" y1="288" x2="592" y2="297" stroke="#E6C87A" stroke-width="2.2" opacity="0.80"/><line x1="582" y1="307" x2="592" y2="329" stroke="#E6C87A" stroke-width="2.2" opacity="0.74"/><line x1="582" y1="350" x2="592" y2="364" stroke="#E6C87A" stroke-width="2.2" opacity="0.57"/><line x1="582" y1="395" x2="592" y2="412" stroke="#E6C87A" stroke-width="2.2" opacity="0.54"/><line x1="582" y1="468" x2="592" y2="483" stroke="#E6C87A" stroke-width="2.2" opacity="0.39"/><line x1="582" y1="497" x2="592" y2="511" stroke="#E6C87A" stroke-width="2.2" opacity="0.49"/><line x1="582" y1="560" x2="592" y2="570" stroke="#E6C87A" stroke-width="2.2" opacity="0.78"/><line x1="582" y1="580" x2="592" y2="596" stroke="#E6C87A" stroke-width="2.2" opacity="0.60"/><line x1="582" y1="612" x2="592" y2="625" stroke="#E6C87A" stroke-width="2.2" opacity="0.42"/><line x1="582" y1="639" x2="592" y2="648" stroke="#E6C87A" stroke-width="2.2" opacity="0.75"/><line x1="582" y1="689" x2="592" y2="710" stroke="#E6C87A" stroke-width="2.2" opacity="0.42"/><line x1="582" y1="730" x2="592" y2="750" stroke="#E6C87A" stroke-width="2.2" opacity="0.45"/><line x1="582" y1="788" x2="592" y2="801" stroke="#E6C87A" stroke-width="2.2" opacity="0.45"/><line x1="582" y1="844" x2="592" y2="853" stroke="#E6C87A" stroke-width="2.2" opacity="0.82"/>
    <line x1="640" y1="120" x2="640" y2="880" stroke="#C9A24B" stroke-width="1.4" opacity="0.8"/>
    <line x1="635" y1="140" x2="645" y2="149" stroke="#E6C87A" stroke-width="2.2" opacity="0.72"/><line x1="635" y1="198" x2="645" y2="212" stroke="#E6C87A" stroke-width="2.2" opacity="0.57"/><line x1="635" y1="225" x2="645" y2="240" stroke="#E6C87A" stroke-width="2.2" opacity="0.48"/><line x1="635" y1="274" x2="645" y2="285" stroke="#E6C87A" stroke-width="2.2" opacity="0.71"/><line x1="635" y1="295" x2="645" y2="315" stroke="#E6C87A" stroke-width="2.2" opacity="0.48"/><line x1="635" y1="334" x2="645" y2="350" stroke="#E6C87A" stroke-width="2.2" opacity="0.72"/><line x1="635" y1="413" x2="645" y2="422" stroke="#E6C87A" stroke-width="2.2" opacity="0.70"/><line x1="635" y1="431" x2="645" y2="450" stroke="#E6C87A" stroke-width="2.2" opacity="0.48"/><line x1="635" y1="468" x2="645" y2="481" stroke="#E6C87A" stroke-width="2.2" opacity="0.42"/><line x1="635" y1="495" x2="645" y2="504" stroke="#E6C87A" stroke-width="2.2" opacity="0.78"/><line x1="635" y1="512" x2="645" y2="525" stroke="#E6C87A" stroke-width="2.2" opacity="0.55"/><line x1="635" y1="538" x2="645" y2="553" stroke="#E6C87A" stroke-width="2.2" opacity="0.77"/><line x1="635" y1="569" x2="645" y2="584" stroke="#E6C87A" stroke-width="2.2" opacity="0.53"/><line x1="635" y1="599" x2="645" y2="606" stroke="#E6C87A" stroke-width="2.2" opacity="0.45"/><line x1="635" y1="614" x2="645" y2="630" stroke="#E6C87A" stroke-width="2.2" opacity="0.77"/><line x1="635" y1="645" x2="645" y2="663" stroke="#E6C87A" stroke-width="2.2" opacity="0.38"/><line x1="635" y1="701" x2="645" y2="714" stroke="#E6C87A" stroke-width="2.2" opacity="0.70"/><line x1="635" y1="726" x2="645" y2="742" stroke="#E6C87A" stroke-width="2.2" opacity="0.64"/><line x1="635" y1="758" x2="645" y2="776" stroke="#E6C87A" stroke-width="2.2" opacity="0.39"/><line x1="635" y1="794" x2="645" y2="811" stroke="#E6C87A" stroke-width="2.2" opacity="0.42"/><line x1="635" y1="849" x2="645" y2="862" stroke="#E6C87A" stroke-width="2.2" opacity="0.49"/>
    <line x1="693" y1="120" x2="693" y2="880" stroke="#C9A24B" stroke-width="1.4" opacity="0.8"/>
    <line x1="688" y1="168" x2="698" y2="188" stroke="#E6C87A" stroke-width="2.2" opacity="0.50"/><line x1="688" y1="208" x2="698" y2="230" stroke="#E6C87A" stroke-width="2.2" opacity="0.37"/><line x1="688" y1="251" x2="698" y2="269" stroke="#E6C87A" stroke-width="2.2" opacity="0.55"/><line x1="688" y1="287" x2="698" y2="304" stroke="#E6C87A" stroke-width="2.2" opacity="0.51"/><line x1="688" y1="337" x2="698" y2="355" stroke="#E6C87A" stroke-width="2.2" opacity="0.75"/><line x1="688" y1="373" x2="698" y2="382" stroke="#E6C87A" stroke-width="2.2" opacity="0.40"/><line x1="688" y1="391" x2="698" y2="403" stroke="#E6C87A" stroke-width="2.2" opacity="0.53"/><line x1="688" y1="522" x2="698" y2="540" stroke="#E6C87A" stroke-width="2.2" opacity="0.76"/><line x1="688" y1="629" x2="698" y2="649" stroke="#E6C87A" stroke-width="2.2" opacity="0.55"/><line x1="688" y1="691" x2="698" y2="700" stroke="#E6C87A" stroke-width="2.2" opacity="0.64"/><line x1="688" y1="710" x2="698" y2="731" stroke="#E6C87A" stroke-width="2.2" opacity="0.43"/><line x1="688" y1="752" x2="698" y2="772" stroke="#E6C87A" stroke-width="2.2" opacity="0.47"/><line x1="688" y1="792" x2="698" y2="803" stroke="#E6C87A" stroke-width="2.2" opacity="0.70"/><line x1="688" y1="813" x2="698" y2="822" stroke="#E6C87A" stroke-width="2.2" opacity="0.39"/></g>

  <g stroke="#C9A24B" stroke-width="1.5" fill="none" opacity="0.9">
    <path d="M40 110 V40 H110"/>
    <path d="M690 40 H760 V110"/>
    <path d="M760 890 V960 H690"/>
    <path d="M110 960 H40 V890"/>
  </g>

  <g text-anchor="middle" font-family='"Shippori Mincho","Yu Mincho","Hiragino Mincho ProN",serif'>
    <text x="400.0" y="492.0" font-size="36" fill="#F2EBDC"
          letter-spacing="6">《輪島塗朱塗大盤 般若心経》</text>
    <text x="400.0" y="552.0" font-size="22" fill="#F2EBDC"
          opacity="0.66" letter-spacing="8">写真差し替え予定</text>
  </g>
</svg>
