<svg xmlns="http://www.w3.org/2000/svg" viewBox="0 0 800 1000" role="img">
  <rect width="800" height="1000" fill="#1E1813"/>
  <g><line x1="225" y1="150" x2="617" y2="150" stroke="#C9A24B" stroke-width="0.8" opacity="0.37"/>
    <line x1="117" y1="165" x2="584" y2="165" stroke="#C9A24B" stroke-width="0.8" opacity="0.39"/>
    <line x1="132" y1="180" x2="701" y2="180" stroke="#C9A24B" stroke-width="0.8" opacity="0.41"/>
    <line x1="107" y1="240" x2="639" y2="240" stroke="#C9A24B" stroke-width="1.5" opacity="0.48"/>
    <line x1="158" y1="270" x2="582" y2="270" stroke="#C9A24B" stroke-width="1.4" opacity="0.51"/>
    <line x1="116" y1="285" x2="635" y2="285" stroke="#C9A24B" stroke-width="1.5" opacity="0.53"/>
    <line x1="94" y1="315" x2="660" y2="315" stroke="#C9A24B" stroke-width="0.7" opacity="0.56"/>
    <line x1="135" y1="330" x2="629" y2="330" stroke="#C9A24B" stroke-width="1.0" opacity="0.58"/>
    <line x1="85" y1="360" x2="566" y2="360" stroke="#C9A24B" stroke-width="0.9" opacity="0.62"/>
    <line x1="108" y1="375" x2="689" y2="375" stroke="#C9A24B" stroke-width="0.6" opacity="0.63"/>
    <line x1="170" y1="390" x2="705" y2="390" stroke="#C9A24B" stroke-width="1.3" opacity="0.65"/>
    <line x1="91" y1="405" x2="579" y2="405" stroke="#C9A24B" stroke-width="1.4" opacity="0.67"/>
    <line x1="175" y1="420" x2="596" y2="420" stroke="#C9A24B" stroke-width="0.9" opacity="0.68"/>
    <line x1="215" y1="435" x2="568" y2="435" stroke="#C9A24B" stroke-width="1.0" opacity="0.70"/>
    <line x1="225" y1="450" x2="567" y2="450" stroke="#C9A24B" stroke-width="1.3" opacity="0.72"/>
    <line x1="122" y1="465" x2="653" y2="465" stroke="#C9A24B" stroke-width="1.5" opacity="0.74"/>
    <line x1="85" y1="480" x2="568" y2="480" stroke="#C9A24B" stroke-width="1.4" opacity="0.75"/>
    <line x1="164" y1="495" x2="673" y2="495" stroke="#C9A24B" stroke-width="1.5" opacity="0.77"/>
    <line x1="241" y1="510" x2="725" y2="510" stroke="#C9A24B" stroke-width="1.2" opacity="0.79"/>
    <line x1="207" y1="525" x2="724" y2="525" stroke="#C9A24B" stroke-width="1.1" opacity="0.79"/>
    <line x1="152" y1="540" x2="703" y2="540" stroke="#C9A24B" stroke-width="1.4" opacity="0.78"/>
    <line x1="215" y1="570" x2="710" y2="570" stroke="#C9A24B" stroke-width="1.0" opacity="0.74"/>
    <line x1="195" y1="585" x2="697" y2="585" stroke="#C9A24B" stroke-width="1.3" opacity="0.73"/>
    <line x1="122" y1="600" x2="670" y2="600" stroke="#C9A24B" stroke-width="0.8" opacity="0.71"/>
    <line x1="89" y1="615" x2="611" y2="615" stroke="#C9A24B" stroke-width="0.7" opacity="0.69"/>
    <line x1="139" y1="630" x2="550" y2="630" stroke="#C9A24B" stroke-width="1.2" opacity="0.67"/>
    <line x1="101" y1="645" x2="578" y2="645" stroke="#C9A24B" stroke-width="1.5" opacity="0.66"/>
    <line x1="204" y1="660" x2="633" y2="660" stroke="#C9A24B" stroke-width="0.7" opacity="0.64"/>
    <line x1="255" y1="675" x2="721" y2="675" stroke="#C9A24B" stroke-width="0.8" opacity="0.62"/>
    <line x1="169" y1="690" x2="576" y2="690" stroke="#C9A24B" stroke-width="0.7" opacity="0.60"/>
    <line x1="117" y1="705" x2="640" y2="705" stroke="#C9A24B" stroke-width="0.8" opacity="0.59"/>
    <line x1="105" y1="720" x2="575" y2="720" stroke="#C9A24B" stroke-width="1.6" opacity="0.57"/>
    <line x1="159" y1="750" x2="715" y2="750" stroke="#C9A24B" stroke-width="0.6" opacity="0.53"/>
    <line x1="123" y1="780" x2="631" y2="780" stroke="#C9A24B" stroke-width="1.2" opacity="0.50"/>
    <line x1="192" y1="810" x2="586" y2="810" stroke="#C9A24B" stroke-width="0.8" opacity="0.47"/>
    <line x1="193" y1="855" x2="628" y2="855" stroke="#C9A24B" stroke-width="0.6" opacity="0.41"/>
    <circle cx="544" cy="380" r="52" fill="none" stroke="#B3341F" stroke-width="1.6" opacity="0.9"/></g>

  <g stroke="#C9A24B" stroke-width="1.5" fill="none" opacity="0.9">
    <path d="M40 110 V40 H110"/>
    <path d="M690 40 H760 V110"/>
    <path d="M760 890 V960 H690"/>
    <path d="M110 960 H40 V890"/>
  </g>

  <g text-anchor="middle" font-family='"Shippori Mincho","Yu Mincho","Hiragino Mincho ProN",serif'>
    <text x="400.0" y="492.0" font-size="44" fill="#F2EBDC"
          letter-spacing="6">《夕凪》</text>
    <text x="400.0" y="552.0" font-size="22" fill="#F2EBDC"
          opacity="0.66" letter-spacing="8">写真差し替え予定</text>
  </g>
</svg>
