<svg xmlns="http://www.w3.org/2000/svg" viewBox="0 0 1200 630" width="1200" height="630">
  <defs>
    <linearGradient id="bg" x1="0" y1="0" x2="1" y2="1">
      <stop offset="0%" stop-color="#e8f3ed"/>
      <stop offset="100%" stop-color="#f5f9f7"/>
    </linearGradient>
  </defs>

  <rect width="1200" height="630" fill="url(#bg)"/>

  <!-- 装飾ドット -->
  <circle cx="80"  cy="80"  r="6" fill="#2a6041" opacity="0.12"/>
  <circle cx="140" cy="50"  r="4" fill="#c87533" opacity="0.15"/>
  <circle cx="60"  cy="180" r="8" fill="#2a6041" opacity="0.08"/>
  <circle cx="1120" cy="100" r="6" fill="#c87533" opacity="0.12"/>
  <circle cx="1160" cy="200" r="4" fill="#2a6041" opacity="0.10"/>
  <circle cx="1080" cy="560" r="8" fill="#c87533" opacity="0.10"/>
  <circle cx="200" cy="580"  r="5" fill="#2a6041" opacity="0.10"/>

  <!-- ===== 左：CSVファイル ===== -->
  <g transform="translate(110,190)">
    <rect x="0" y="0" width="130" height="165" rx="10" fill="white" stroke="#e0ddd6" stroke-width="2"/>
    <polygon points="98,0 130,32 98,32" fill="#e8f3ed" stroke="#e0ddd6" stroke-width="1.5"/>
    <line x1="98" y1="0" x2="98" y2="32" stroke="#e0ddd6" stroke-width="1.5"/>
    <!-- ファイルアイコン（小） -->
    <rect x="10" y="10" width="20" height="26" rx="3" fill="#c87533" opacity="0.25"/>
    <line x1="13" y1="18" x2="27" y2="18" stroke="#c87533" stroke-width="1.5" opacity="0.6"/>
    <line x1="13" y1="23" x2="27" y2="23" stroke="#c87533" stroke-width="1.5" opacity="0.6"/>
    <line x1="13" y1="28" x2="22" y2="28" stroke="#c87533" stroke-width="1.5" opacity="0.6"/>
    <!-- ラベル -->
    <rect x="10" y="44" width="110" height="20" rx="4" fill="#e8f3ed"/>
    <text x="65" y="59" text-anchor="middle" font-size="11" font-weight="700" fill="#2a6041" font-family="Noto Sans CJK JP,sans-serif">調整さん CSV</text>
    <!-- データ行 -->
    <rect x="10" y="72"  width="110" height="6" rx="2" fill="#e0ddd6"/>
    <rect x="10" y="84"  width="85"  height="6" rx="2" fill="#e0ddd6"/>
    <rect x="10" y="96"  width="100" height="6" rx="2" fill="#e0ddd6"/>
    <rect x="10" y="108" width="75"  height="6" rx="2" fill="#e0ddd6"/>
    <rect x="10" y="120" width="95"  height="6" rx="2" fill="#e0ddd6"/>
    <rect x="10" y="132" width="80"  height="6" rx="2" fill="#e0ddd6"/>
    <rect x="10" y="144" width="60"  height="6" rx="2" fill="#e0ddd6"/>
  </g>
  <text x="175" y="394" text-anchor="middle" font-size="14" font-weight="700" fill="#2a6041" font-family="Noto Sans CJK JP,sans-serif">出欠データ</text>
  <text x="175" y="412" text-anchor="middle" font-size="12" fill="#5a5a5a" font-family="Noto Sans CJK JP,sans-serif">43名・参加状況</text>

  <!-- ===== 矢印 左→中 ===== -->
  <line x1="252" y1="275" x2="462" y2="275" stroke="#2a6041" stroke-width="2.5" stroke-dasharray="8,5" stroke-linecap="round"/>
  <polygon points="462,267 482,275 462,283" fill="#2a6041"/>
  <rect x="302" y="252" width="108" height="22" rx="11" fill="#2a6041" opacity="0.10"/>
  <text x="356" y="267" text-anchor="middle" font-size="11.5" fill="#2a6041" font-weight="600" font-family="Noto Sans CJK JP,sans-serif">読み込む</text>

  <!-- ===== 中央：AIエンジン ===== -->
  <g transform="translate(600,275)">
    <!-- 外装飾リング -->
    <circle r="108" fill="none" stroke="#2a6041" stroke-width="1" stroke-dasharray="4,6" opacity="0.2"/>
    <circle r="96"  fill="#2a6041" opacity="0.07"/>
    <circle r="94"  fill="none" stroke="#2a6041" stroke-width="2" opacity="0.2"/>
    <!-- ギア歯（8つ） -->
    <g opacity="0.18">
      <rect x="-8" y="-108" width="16" height="22" rx="4" fill="#2a6041"/>
      <rect x="-8" y=" 86"  width="16" height="22" rx="4" fill="#2a6041"/>
      <rect x="-108" y="-8" width="22" height="16" rx="4" fill="#2a6041"/>
      <rect x=" 86"  y="-8" width="22" height="16" rx="4" fill="#2a6041"/>
      <g transform="rotate(45)">
        <rect x="-8" y="-108" width="16" height="22" rx="4" fill="#2a6041"/>
        <rect x="-8" y=" 86"  width="16" height="22" rx="4" fill="#2a6041"/>
        <rect x="-108" y="-8" width="22" height="16" rx="4" fill="#2a6041"/>
        <rect x=" 86"  y="-8" width="22" height="16" rx="4" fill="#2a6041"/>
      </g>
    </g>
    <!-- 内円（白） -->
    <circle r="72" fill="white" stroke="#2a6041" stroke-width="1.5" opacity="0.7"/>
    <!-- メイン円 -->
    <circle r="62" fill="#2a6041"/>
    <!-- オレンジ回転ライン -->
    <circle r="66" fill="none" stroke="#c87533" stroke-width="2" stroke-dasharray="7,5" opacity="0.7"/>
    <!-- テキスト -->
    <text x="0" y="-16" text-anchor="middle" font-size="14.5" font-weight="700" fill="white" font-family="Noto Sans CJK JP,sans-serif">制約充足</text>
    <text x="0" y="4"   text-anchor="middle" font-size="14.5" font-weight="700" fill="white" font-family="Noto Sans CJK JP,sans-serif">アルゴリズム</text>
    <text x="0" y="26"  text-anchor="middle" font-size="11.5" fill="#a8d4bc" font-family="Noto Sans CJK JP,sans-serif">AI自動探索</text>
  </g>

  <!-- ===== 矢印 中→右 ===== -->
  <line x1="718" y1="275" x2="892" y2="275" stroke="#c87533" stroke-width="2.5" stroke-dasharray="8,5" stroke-linecap="round"/>
  <polygon points="892,267 912,275 892,283" fill="#c87533"/>
  <rect x="762" y="252" width="108" height="22" rx="11" fill="#c87533" opacity="0.10"/>
  <text x="816" y="267" text-anchor="middle" font-size="11.5" fill="#c87533" font-weight="600" font-family="Noto Sans CJK JP,sans-serif">自動生成</text>

  <!-- ===== 右：スライド ===== -->
  <g transform="translate(916, 148)">
    <rect width="248" height="260" rx="12" fill="white" stroke="#e0ddd6" stroke-width="2"/>
    <!-- ヘッダーバー -->
    <rect width="248" height="38" rx="12" fill="#2a6041"/>
    <rect y="24" width="248" height="14" fill="#2a6041"/>
    <text x="124" y="24" text-anchor="middle" font-size="12" font-weight="700" fill="white" font-family="Noto Sans CJK JP,sans-serif">チーム編成スライド</text>
    <!-- チーム1〜4 (2x2) -->
    <g transform="translate(12,50)">
      <rect width="50" height="46" rx="5" fill="#e8f3ed" stroke="#2a6041" stroke-width="1.2"/>
      <text x="25" y="13" text-anchor="middle" font-size="8" font-weight="700" fill="#2a6041" font-family="Noto Sans CJK JP,sans-serif">チーム1</text>
      <circle cx="25" cy="27" r="8" fill="#2a6041" opacity="0.75"/>
      <text x="25" y="31" text-anchor="middle" font-size="7" fill="white" font-family="sans-serif">GL</text>
      <rect x="6" y="38" width="38" height="4" rx="2" fill="#2a6041" opacity="0.18"/>
    </g>
    <g transform="translate(70,50)">
      <rect width="50" height="46" rx="5" fill="#e8f3ed" stroke="#2a6041" stroke-width="1.2"/>
      <text x="25" y="13" text-anchor="middle" font-size="8" font-weight="700" fill="#2a6041" font-family="Noto Sans CJK JP,sans-serif">チーム2</text>
      <circle cx="25" cy="27" r="8" fill="#2a6041" opacity="0.75"/>
      <text x="25" y="31" text-anchor="middle" font-size="7" fill="white" font-family="sans-serif">GL</text>
      <rect x="6" y="38" width="38" height="4" rx="2" fill="#2a6041" opacity="0.18"/>
    </g>
    <g transform="translate(128,50)">
      <rect width="50" height="46" rx="5" fill="#e8f3ed" stroke="#2a6041" stroke-width="1.2"/>
      <text x="25" y="13" text-anchor="middle" font-size="8" font-weight="700" fill="#2a6041" font-family="Noto Sans CJK JP,sans-serif">チーム3</text>
      <circle cx="25" cy="27" r="8" fill="#2a6041" opacity="0.75"/>
      <text x="25" y="31" text-anchor="middle" font-size="7" fill="white" font-family="sans-serif">GL</text>
      <rect x="6" y="38" width="38" height="4" rx="2" fill="#2a6041" opacity="0.18"/>
    </g>
    <g transform="translate(186,50)">
      <rect width="50" height="46" rx="5" fill="#e8f3ed" stroke="#2a6041" stroke-width="1.2"/>
      <text x="25" y="13" text-anchor="middle" font-size="8" font-weight="700" fill="#2a6041" font-family="Noto Sans CJK JP,sans-serif">チーム4</text>
      <circle cx="25" cy="27" r="8" fill="#2a6041" opacity="0.75"/>
      <text x="25" y="31" text-anchor="middle" font-size="7" fill="white" font-family="sans-serif">GL</text>
      <rect x="6" y="38" width="38" height="4" rx="2" fill="#2a6041" opacity="0.18"/>
    </g>
    <!-- チーム5〜7 -->
    <g transform="translate(12,106)">
      <rect width="50" height="46" rx="5" fill="#fdf4ec" stroke="#c87533" stroke-width="1.2"/>
      <text x="25" y="13" text-anchor="middle" font-size="8" font-weight="700" fill="#c87533" font-family="Noto Sans CJK JP,sans-serif">チーム5</text>
      <circle cx="25" cy="27" r="8" fill="#c87533" opacity="0.75"/>
      <text x="25" y="31" text-anchor="middle" font-size="7" fill="white" font-family="sans-serif">GL</text>
      <rect x="6" y="38" width="38" height="4" rx="2" fill="#c87533" opacity="0.18"/>
    </g>
    <g transform="translate(70,106)">
      <rect width="50" height="46" rx="5" fill="#fdf4ec" stroke="#c87533" stroke-width="1.2"/>
      <text x="25" y="13" text-anchor="middle" font-size="8" font-weight="700" fill="#c87533" font-family="Noto Sans CJK JP,sans-serif">チーム6</text>
      <circle cx="25" cy="27" r="8" fill="#c87533" opacity="0.75"/>
      <text x="25" y="31" text-anchor="middle" font-size="7" fill="white" font-family="sans-serif">GL</text>
      <rect x="6" y="38" width="38" height="4" rx="2" fill="#c87533" opacity="0.18"/>
    </g>
    <g transform="translate(128,106)">
      <rect width="50" height="46" rx="5" fill="#fdf4ec" stroke="#c87533" stroke-width="1.2"/>
      <text x="25" y="13" text-anchor="middle" font-size="8" font-weight="700" fill="#c87533" font-family="Noto Sans CJK JP,sans-serif">チーム7</text>
      <circle cx="25" cy="27" r="8" fill="#c87533" opacity="0.75"/>
      <text x="25" y="31" text-anchor="middle" font-size="7" fill="white" font-family="sans-serif">GL</text>
      <rect x="6" y="38" width="38" height="4" rx="2" fill="#c87533" opacity="0.18"/>
    </g>
    <!-- 制約チェック -->
    <rect x="12" y="166" width="224" height="26" rx="6" fill="#e8f3ed"/>
    <text x="124" y="183" text-anchor="middle" font-size="11" font-weight="700" fill="#2a6041" font-family="Noto Sans CJK JP,sans-serif">✓ 全制約クリア（違反0件）</text>
    <!-- 2回目バッジ -->
    <rect x="12" y="202" width="107" height="46" rx="5" fill="#f5f9f7" stroke="#2a6041" stroke-width="1" stroke-dasharray="4,3"/>
    <text x="65" y="220" text-anchor="middle" font-size="8.5" fill="#2a6041" font-weight="600" font-family="Noto Sans CJK JP,sans-serif">2回目スライド</text>
    <text x="65" y="236" text-anchor="middle" font-size="8" fill="#5a5a5a" font-family="Noto Sans CJK JP,sans-serif">も同時に出力</text>
    <!-- CSVバッジ -->
    <rect x="129" y="202" width="107" height="46" rx="5" fill="#f5f9f7" stroke="#c87533" stroke-width="1" stroke-dasharray="4,3"/>
    <text x="182" y="220" text-anchor="middle" font-size="8.5" fill="#c87533" font-weight="600" font-family="Noto Sans CJK JP,sans-serif">CSVファイルも</text>
    <text x="182" y="236" text-anchor="middle" font-size="8" fill="#5a5a5a" font-family="Noto Sans CJK JP,sans-serif">一括エクスポート</text>
  </g>
  <text x="1040" y="440" text-anchor="middle" font-size="14" font-weight="700" fill="#c87533" font-family="Noto Sans CJK JP,sans-serif">7チーム編成　完成</text>

  <!-- ===== 下部バナー ===== -->
  <rect x="180" y="492" width="840" height="52" rx="26" fill="white" stroke="#e0ddd6" stroke-width="1.5"/>
  <!-- チェック1 -->
  <circle cx="240" cy="518" r="14" fill="#2a6041" opacity="0.12"/>
  <text x="240" y="523" text-anchor="middle" font-size="14" fill="#2a6041" font-weight="700" font-family="sans-serif">✓</text>
  <text x="295" y="522" text-anchor="middle" font-size="13" font-weight="600" fill="#2a6041" font-family="Noto Sans CJK JP,sans-serif">全8制約クリア</text>
  <line x1="380" y1="502" x2="380" y2="534" stroke="#e0ddd6" stroke-width="1.5"/>
  <!-- チェック2 -->
  <circle cx="450" cy="518" r="14" fill="#2a6041" opacity="0.12"/>
  <path d="M443,518 L449,524 L460,512" stroke="#2a6041" stroke-width="2.2" fill="none" stroke-linecap="round" stroke-linejoin="round"/>
  <text x="530" y="522" text-anchor="middle" font-size="13" font-weight="600" fill="#2a6041" font-family="Noto Sans CJK JP,sans-serif">数秒で再計算</text>
  <line x1="618" y1="502" x2="618" y2="534" stroke="#e0ddd6" stroke-width="1.5"/>
  <!-- チェック3 -->
  <circle cx="690" cy="518" r="14" fill="#c87533" opacity="0.12"/>
  <rect x="683" y="510" width="14" height="16" rx="2" fill="none" stroke="#c87533" stroke-width="1.8"/>
  <line x1="686" y1="515" x2="694" y2="515" stroke="#c87533" stroke-width="1.5" opacity="0.7"/>
  <line x1="686" y1="519" x2="694" y2="519" stroke="#c87533" stroke-width="1.5" opacity="0.7"/>
  <text x="780" y="522" text-anchor="middle" font-size="13" font-weight="600" fill="#2a6041" font-family="Noto Sans CJK JP,sans-serif">CSV＋スライド出力</text>

  <!-- キャプション -->
  <text x="600" y="595" text-anchor="middle" font-size="12.5" fill="#5a5a5a" opacity="0.8" font-family="Noto Sans CJK JP,sans-serif">調整さんCSVを読み込むだけで、複数の条件を満たすチーム編成を自動生成</text>
</svg>