<svg xmlns="http://www.w3.org/2000/svg" viewBox="0 0 880 480">
<defs>
  <marker id="mG" viewBox="0 0 8 8" refX="7" refY="4" markerWidth="5" markerHeight="5" orient="auto"><path d="M0,0.5 L7,4 L0,7.5 Z" fill="#2a6041"/></marker>
  <marker id="mO" viewBox="0 0 8 8" refX="7" refY="4" markerWidth="5" markerHeight="5" orient="auto"><path d="M0,0.5 L7,4 L0,7.5 Z" fill="#c87533"/></marker>
  <marker id="mGd" viewBox="0 0 8 8" refX="7" refY="4" markerWidth="5" markerHeight="5" orient="auto"><path d="M0,0.5 L7,4 L0,7.5 Z" fill="#2a6041" opacity="0.6"/></marker>
</defs>
<rect width="880" height="480" fill="#ffffff"/>
<path d="M 170,129 L 200,129" stroke="#2a6041" stroke-width="2.2" fill="none" marker-end="url(#mG)"/>
<path d="M 350,129 L 380,129" stroke="#2a6041" stroke-width="2.2" fill="none" marker-end="url(#mG)"/>
<path d="M 550,129 L 580,129" stroke="#2a6041" stroke-width="2.2" fill="none" marker-end="url(#mG)"/>
<path d="M 160,290 L 160,208 L 380,208 L 380,164" stroke="#2a6041" stroke-width="1.8" stroke-dasharray="6,4" fill="none" marker-end="url(#mGd)" opacity="0.6"/>
<path d="M 655,172 L 655,261 L 525,261 L 525,350" stroke="#c87533" stroke-width="2.2" fill="none" marker-end="url(#mO)"/>
<path d="M 655,172 L 655,261 L 695,261 L 695,350" stroke="#c87533" stroke-width="2.2" fill="none" marker-end="url(#mO)"/>
<rect x="30" y="86" width="140" height="86" rx="8" fill="#ffffff" stroke="#c87533" stroke-width="2"/>
<rect x="30" y="86" width="140" height="26" rx="8" fill="#fdf4ec"/>
<rect x="30" y="104" width="140" height="8" fill="#fdf4ec"/>
<text x="100" y="104" text-anchor="middle" font-family='"Noto Sans CJK JP", "Noto Sans JP", sans-serif' font-size="12" font-weight="700" fill="#c87533">LAS 点群データ</text>
<text x="100" y="130" text-anchor="middle" font-family='"Noto Sans CJK JP", "Noto Sans JP", sans-serif' font-size="10.5" fill="#5a5a5a">1棟分</text>
<text x="100" y="146" text-anchor="middle" font-family='"Noto Sans CJK JP", "Noto Sans JP", sans-serif' font-size="10.5" fill="#5a5a5a">東京都デジタルツイン由来</text>
<rect x="200" y="86" width="150" height="86" rx="8" fill="#ffffff" stroke="#2a6041" stroke-width="2"/>
<rect x="200" y="86" width="150" height="26" rx="8" fill="#e8f3ed"/>
<rect x="200" y="104" width="150" height="8" fill="#e8f3ed"/>
<text x="275" y="104" text-anchor="middle" font-family='"Noto Sans CJK JP", "Noto Sans JP", sans-serif' font-size="12" font-weight="700" fill="#2a6041">屋根面の解析</text>
<text x="275" y="130" text-anchor="middle" font-family='"Noto Sans CJK JP", "Noto Sans JP", sans-serif' font-size="10.5" fill="#5a5a5a">平面抽出 (RANSAC)</text>
<text x="275" y="146" text-anchor="middle" font-family='"Noto Sans CJK JP", "Noto Sans JP", sans-serif' font-size="10.5" fill="#5a5a5a">法線・方位・勾配・面積</text>
<rect x="380" y="70" width="170" height="118" rx="10" fill="#2a6041"/>
<rect x="380" y="70" width="170" height="30" rx="10" fill="#1d4a30"/>
<rect x="380" y="92" width="170" height="8" fill="#1d4a30"/>
<text x="465" y="90" text-anchor="middle" font-family='"Noto Sans CJK JP", "Noto Sans JP", sans-serif' font-size="12" font-weight="700" fill="#ffffff">採用面の選別＋パネル配置</text>
<line x1="398" y1="120" x2="532" y2="120" stroke="#c87533" stroke-width="1.5" opacity="0.8"/>
<text x="465" y="142" text-anchor="middle" font-family='"Noto Sans CJK JP", "Noto Sans JP", sans-serif' font-size="11" font-weight="500" fill="#ffffff">方位・勾配で選別</text>
<text x="465" y="159" text-anchor="middle" font-family='"Noto Sans CJK JP", "Noto Sans JP", sans-serif' font-size="11" font-weight="500" fill="#ffffff">屋根長辺に平行で中央配置</text>
<rect x="580" y="86" width="150" height="86" rx="8" fill="#ffffff" stroke="#2a6041" stroke-width="2"/>
<rect x="580" y="86" width="150" height="26" rx="8" fill="#e8f3ed"/>
<rect x="580" y="104" width="150" height="8" fill="#e8f3ed"/>
<text x="655" y="104" text-anchor="middle" font-family='"Noto Sans CJK JP", "Noto Sans JP", sans-serif' font-size="12" font-weight="700" fill="#2a6041">図面の自動生成</text>
<text x="655" y="130" text-anchor="middle" font-family='"Noto Sans CJK JP", "Noto Sans JP", sans-serif' font-size="10.5" fill="#5a5a5a">屋根平面図／搭載図</text>
<text x="655" y="146" text-anchor="middle" font-family='"Noto Sans CJK JP", "Noto Sans JP", sans-serif' font-size="10.5" fill="#5a5a5a">寸法線・棟線・凡例</text>
<rect x="60" y="290" width="200" height="90" rx="8" fill="#ffffff" stroke="#2a6041" stroke-width="1.5" stroke-dasharray="6,4"/>
<text x="160" y="312" text-anchor="middle" font-family='"Noto Sans CJK JP", "Noto Sans JP", sans-serif' font-size="12" font-weight="700" fill="#2a6041">ヒアリング情報</text>
<text x="160" y="336" text-anchor="middle" font-family='"Noto Sans CJK JP", "Noto Sans JP", sans-serif' font-size="10.5" fill="#5a5a5a">採用面方針 (南面のみ等)</text>
<text x="160" y="352" text-anchor="middle" font-family='"Noto Sans CJK JP", "Noto Sans JP", sans-serif' font-size="10.5" fill="#5a5a5a">希望容量・既設障害物</text>
<rect x="460" y="350" width="130" height="86" rx="8" fill="#ffffff" stroke="#c87533" stroke-width="2"/>
<rect x="460" y="350" width="130" height="26" rx="8" fill="#fdf4ec"/>
<rect x="460" y="368" width="130" height="8" fill="#fdf4ec"/>
<text x="525" y="368" text-anchor="middle" font-family='"Noto Sans CJK JP", "Noto Sans JP", sans-serif' font-size="12" font-weight="700" fill="#c87533">A4横 pptx</text>
<text x="525" y="394" text-anchor="middle" font-family='"Noto Sans CJK JP", "Noto Sans JP", sans-serif' font-size="10.5" fill="#5a5a5a">1スライドの</text>
<text x="525" y="410" text-anchor="middle" font-family='"Noto Sans CJK JP", "Noto Sans JP", sans-serif' font-size="10.5" fill="#5a5a5a">提案資料</text>
<rect x="620" y="350" width="150" height="86" rx="8" fill="#ffffff" stroke="#c87533" stroke-width="2"/>
<rect x="620" y="350" width="150" height="26" rx="8" fill="#fdf4ec"/>
<rect x="620" y="368" width="150" height="8" fill="#fdf4ec"/>
<text x="695" y="368" text-anchor="middle" font-family='"Noto Sans CJK JP", "Noto Sans JP", sans-serif' font-size="12" font-weight="700" fill="#c87533">出典・注記の自動付与</text>
<text x="695" y="394" text-anchor="middle" font-family='"Noto Sans CJK JP", "Noto Sans JP", sans-serif' font-size="10.5" fill="#5a5a5a">CC BY 4.0</text>
<text x="695" y="410" text-anchor="middle" font-family='"Noto Sans CJK JP", "Noto Sans JP", sans-serif' font-size="10.5" fill="#5a5a5a">概算注記つき</text>
<g transform="translate(250, 452)">
  <line x1="0" y1="7" x2="22" y2="7" stroke="#2a6041" stroke-width="2" marker-end="url(#mG)"/>
  <text x="28" y="11" font-family='"Noto Sans CJK JP", "Noto Sans JP", sans-serif' font-size="11" fill="#5a5a5a">データの流れ</text>
  <line x1="130" y1="7" x2="152" y2="7" stroke="#2a6041" stroke-width="1.8" stroke-dasharray="5,4" marker-end="url(#mGd)" opacity="0.6"/>
  <text x="158" y="11" font-family='"Noto Sans CJK JP", "Noto Sans JP", sans-serif' font-size="11" fill="#5a5a5a">補助情報</text>
  <line x1="244" y1="7" x2="266" y2="7" stroke="#c87533" stroke-width="2" marker-end="url(#mO)"/>
  <text x="272" y="11" font-family='"Noto Sans CJK JP", "Noto Sans JP", sans-serif' font-size="11" fill="#5a5a5a">出力ファイル</text>
</g>
</svg>