<svg xmlns="http://www.w3.org/2000/svg" viewBox="0 0 800 1000" role="img">
  <rect width="800" height="1000" fill="#1E1813"/>
  <g><circle cx="438" cy="430" r="3.1" fill="#C9CDD2" opacity="0.66"/>
    <circle cx="429" cy="465" r="3.3" fill="#C9CDD2" opacity="0.64"/>
    <circle cx="400" cy="479" r="1.4" fill="#C9CDD2" opacity="0.51"/>
    <circle cx="372" cy="464" r="3.4" fill="#C9CDD2" opacity="0.83"/>
    <circle cx="359" cy="430" r="3.3" fill="#C9A24B" opacity="0.68"/>
    <circle cx="372" cy="399" r="2.6" fill="#C9A24B" opacity="0.69"/>
    <circle cx="400" cy="382" r="2.5" fill="#C9CDD2" opacity="0.56"/>
    <circle cx="429" cy="395" r="1.6" fill="#C9A24B" opacity="0.42"/>
    <circle cx="465" cy="446" r="2.0" fill="#C9CDD2" opacity="0.81"/>
    <circle cx="447" cy="480" r="2.1" fill="#C9A24B" opacity="0.65"/>
    <circle cx="419" cy="503" r="1.3" fill="#C9A24B" opacity="0.88"/>
    <circle cx="385" cy="502" r="1.8" fill="#C9A24B" opacity="0.56"/>
    <circle cx="357" cy="480" r="2.2" fill="#C9CDD2" opacity="0.66"/>
    <circle cx="340" cy="451" r="2.8" fill="#C9A24B" opacity="0.86"/>
    <circle cx="337" cy="413" r="1.4" fill="#C9A24B" opacity="0.75"/>
    <circle cx="356" cy="383" r="2.6" fill="#C9A24B" opacity="0.60"/>
    <circle cx="382" cy="355" r="1.4" fill="#C9A24B" opacity="0.39"/>
    <circle cx="414" cy="363" r="2.0" fill="#C9A24B" opacity="0.52"/>
    <circle cx="442" cy="377" r="3.3" fill="#C9A24B" opacity="0.86"/>
    <circle cx="458" cy="407" r="1.3" fill="#C9CDD2" opacity="0.84"/>
    <circle cx="481" cy="471" r="2.2" fill="#C9A24B" opacity="0.64"/>
    <circle cx="459" cy="506" r="2.7" fill="#C9A24B" opacity="0.87"/>
    <circle cx="429" cy="527" r="1.7" fill="#C9A24B" opacity="0.81"/>
    <circle cx="396" cy="524" r="2.9" fill="#C9CDD2" opacity="0.71"/>
    <circle cx="363" cy="521" r="1.3" fill="#C9A24B" opacity="0.47"/>
    <circle cx="343" cy="500" r="1.4" fill="#C9A24B" opacity="0.49"/>
    <circle cx="318" cy="463" r="3.2" fill="#C9A24B" opacity="0.86"/>
    <circle cx="317" cy="425" r="2.8" fill="#C9CDD2" opacity="0.61"/>
    <circle cx="322" cy="391" r="1.8" fill="#C9A24B" opacity="0.84"/>
    <circle cx="347" cy="362" r="2.3" fill="#C9A24B" opacity="0.52"/>
    <circle cx="373" cy="340" r="1.3" fill="#C9A24B" opacity="0.56"/>
    <circle cx="404" cy="331" r="2.6" fill="#C9CDD2" opacity="0.38"/>
    <circle cx="434" cy="341" r="2.2" fill="#C9A24B" opacity="0.81"/>
    <circle cx="458" cy="359" r="2.3" fill="#C9CDD2" opacity="0.49"/>
    <circle cx="482" cy="394" r="2.6" fill="#C9A24B" opacity="0.48"/>
    <circle cx="478" cy="434" r="2.8" fill="#C9A24B" opacity="0.47"/>
    <circle cx="479" cy="508" r="2.5" fill="#C9CDD2" opacity="0.41"/>
    <circle cx="459" cy="533" r="1.5" fill="#C9A24B" opacity="0.45"/>
    <circle cx="434" cy="557" r="2.8" fill="#C9CDD2" opacity="0.43"/>
    <circle cx="401" cy="558" r="2.9" fill="#C9A24B" opacity="0.62"/>
    <circle cx="371" cy="550" r="2.4" fill="#C9A24B" opacity="0.85"/>
    <circle cx="343" cy="539" r="1.8" fill="#C9CDD2" opacity="0.79"/>
    <circle cx="321" cy="512" r="1.4" fill="#C9CDD2" opacity="0.73"/>
    <circle cx="306" cy="477" r="1.3" fill="#C9A24B" opacity="0.60"/>
    <circle cx="289" cy="441" r="2.2" fill="#C9CDD2" opacity="0.78"/>
    <circle cx="300" cy="405" r="2.7" fill="#C9A24B" opacity="0.88"/>
    <circle cx="301" cy="371" r="1.5" fill="#C9CDD2" opacity="0.45"/>
    <circle cx="329" cy="339" r="1.5" fill="#C9A24B" opacity="0.49"/>
    <circle cx="349" cy="310" r="1.1" fill="#C9A24B" opacity="0.83"/>
    <circle cx="382" cy="315" r="2.4" fill="#C9A24B" opacity="0.42"/>
    <circle cx="415" cy="306" r="1.8" fill="#C9CDD2" opacity="0.81"/>
    <circle cx="446" cy="309" r="1.1" fill="#C9CDD2" opacity="0.49"/>
    <circle cx="467" cy="334" r="1.4" fill="#C9A24B" opacity="0.80"/>
    <circle cx="498" cy="367" r="2.6" fill="#C9A24B" opacity="0.38"/>
    <circle cx="502" cy="398" r="1.7" fill="#C9CDD2" opacity="0.57"/>
    <circle cx="511" cy="437" r="2.3" fill="#C9A24B" opacity="0.71"/>
    <circle cx="498" cy="477" r="2.7" fill="#C9CDD2" opacity="0.49"/>
    <circle cx="484" cy="542" r="2.2" fill="#C9CDD2" opacity="0.78"/>
    <circle cx="452" cy="577" r="2.1" fill="#C9CDD2" opacity="0.68"/>
    <circle cx="423" cy="589" r="1.1" fill="#C9A24B" opacity="0.82"/>
    <circle cx="393" cy="590" r="2.4" fill="#C9CDD2" opacity="0.76"/>
    <circle cx="363" cy="564" r="2.6" fill="#C9CDD2" opacity="0.77"/>
    <circle cx="327" cy="558" r="1.1" fill="#C9CDD2" opacity="0.49"/>
    <circle cx="309" cy="536" r="1.5" fill="#C9A24B" opacity="0.82"/>
    <circle cx="289" cy="498" r="1.3" fill="#C9CDD2" opacity="0.35"/>
    <circle cx="268" cy="468" r="1.8" fill="#C9A24B" opacity="0.60"/>
    <circle cx="268" cy="430" r="1.8" fill="#C9CDD2" opacity="0.37"/>
    <circle cx="271" cy="393" r="2.7" fill="#C9CDD2" opacity="0.74"/>
    <circle cx="281" cy="362" r="2.0" fill="#C9A24B" opacity="0.48"/>
    <circle cx="304" cy="324" r="1.0" fill="#C9A24B" opacity="0.59"/>
    <circle cx="331" cy="299" r="2.9" fill="#C9A24B" opacity="0.87"/>
    <circle cx="361" cy="294" r="2.4" fill="#C9CDD2" opacity="0.81"/>
    <circle cx="392" cy="287" r="1.8" fill="#C9A24B" opacity="0.51"/>
    <circle cx="423" cy="280" r="2.4" fill="#C9A24B" opacity="0.73"/>
    <circle cx="454" cy="296" r="2.3" fill="#C9A24B" opacity="0.56"/>
    <circle cx="479" cy="320" r="2.0" fill="#C9A24B" opacity="0.52"/>
    <circle cx="502" cy="348" r="1.8" fill="#C9CDD2" opacity="0.73"/>
    <circle cx="513" cy="373" r="2.0" fill="#C9CDD2" opacity="0.36"/>
    <circle cx="535" cy="410" r="2.4" fill="#C9A24B" opacity="0.45"/>
    <circle cx="521" cy="448" r="2.1" fill="#C9A24B" opacity="0.37"/>
    <circle cx="510" cy="481" r="2.2" fill="#C9A24B" opacity="0.85"/>
    <circle cx="503" cy="522" r="2.3" fill="#C9A24B" opacity="0.82"/>
    <circle cx="473" cy="600" r="1.8" fill="#C9CDD2" opacity="0.78"/>
    <circle cx="439" cy="595" r="1.1" fill="#C9A24B" opacity="0.41"/>
    <circle cx="408" cy="613" r="2.0" fill="#C9CDD2" opacity="0.73"/>
    <circle cx="375" cy="616" r="2.7" fill="#C9A24B" opacity="0.76"/>
    <circle cx="346" cy="598" r="2.3" fill="#C9CDD2" opacity="0.73"/>
    <circle cx="312" cy="580" r="1.4" fill="#C9A24B" opacity="0.65"/>
    <circle cx="301" cy="549" r="1.8" fill="#C9A24B" opacity="0.79"/>
    <circle cx="278" cy="528" r="1.4" fill="#C9CDD2" opacity="0.59"/>
    <circle cx="249" cy="495" r="1.2" fill="#C9CDD2" opacity="0.44"/>
    <circle cx="250" cy="456" r="1.7" fill="#C9A24B" opacity="0.43"/>
    <circle cx="249" cy="420" r="2.4" fill="#C9CDD2" opacity="0.69"/>
    <circle cx="252" cy="383" r="2.6" fill="#C9A24B" opacity="0.43"/>
    <circle cx="261" cy="347" r="1.7" fill="#C9A24B" opacity="0.48"/>
    <circle cx="274" cy="322" r="1.5" fill="#C9A24B" opacity="0.56"/>
    <circle cx="303" cy="302" r="1.9" fill="#C9A24B" opacity="0.65"/>
    <circle cx="335" cy="269" r="1.7" fill="#C9A24B" opacity="0.86"/>
    <circle cx="362" cy="257" r="2.6" fill="#C9CDD2" opacity="0.68"/>
    <circle cx="392" cy="258" r="1.4" fill="#C9CDD2" opacity="0.47"/>
    <circle cx="422" cy="257" r="1.5" fill="#C9A24B" opacity="0.73"/>
    <circle cx="451" cy="258" r="2.0" fill="#C9CDD2" opacity="0.41"/>
    <circle cx="484" cy="289" r="2.3" fill="#C9CDD2" opacity="0.73"/>
    <circle cx="514" cy="304" r="1.1" fill="#C9CDD2" opacity="0.51"/>
    <circle cx="532" cy="334" r="2.3" fill="#C9A24B" opacity="0.59"/>
    <circle cx="531" cy="365" r="2.5" fill="#C9CDD2" opacity="0.88"/>
    <circle cx="559" cy="403" r="1.0" fill="#C9A24B" opacity="0.60"/>
    <circle cx="549" cy="440" r="2.2" fill="#C9A24B" opacity="0.41"/>
    <circle cx="556" cy="477" r="2.0" fill="#C9A24B" opacity="0.49"/>
    <circle cx="540" cy="512" r="2.2" fill="#C9A24B" opacity="0.42"/>
    <circle cx="525" cy="544" r="1.3" fill="#C9CDD2" opacity="0.41"/>
    <circle cx="497" cy="563" r="1.2" fill="#C9CDD2" opacity="0.68"/>
    <circle cx="443" cy="615" r="2.0" fill="#C9A24B" opacity="0.40"/>
    <circle cx="412" cy="639" r="1.7" fill="#C9A24B" opacity="0.57"/>
    <circle cx="381" cy="628" r="2.2" fill="#C9A24B" opacity="0.58"/>
    <circle cx="345" cy="620" r="2.2" fill="#C9A24B" opacity="0.87"/>
    <circle cx="321" cy="610" r="2.3" fill="#C9A24B" opacity="0.42"/>
    <circle cx="301" cy="580" r="1.5" fill="#C9CDD2" opacity="0.80"/>
    <circle cx="280" cy="572" r="1.7" fill="#C9A24B" opacity="0.52"/>
    <circle cx="240" cy="540" r="1.6" fill="#C9A24B" opacity="0.53"/>
    <circle cx="238" cy="500" r="1.2" fill="#C9A24B" opacity="0.70"/>
    <circle cx="238" cy="460" r="2.3" fill="#C9CDD2" opacity="0.81"/>
    <circle cx="234" cy="425" r="1.5" fill="#C9A24B" opacity="0.89"/>
    <circle cx="234" cy="386" r="1.6" fill="#C9A24B" opacity="0.74"/>
    <circle cx="247" cy="347" r="2.5" fill="#C9CDD2" opacity="0.38"/>
    <circle cx="265" cy="314" r="2.2" fill="#C9A24B" opacity="0.57"/>
    <circle cx="282" cy="299" r="1.8" fill="#C9A24B" opacity="0.73"/>
    <circle cx="308" cy="256" r="1.1" fill="#C9A24B" opacity="0.49"/>
    <circle cx="323" cy="233" r="2.4" fill="#C9A24B" opacity="0.82"/>
    <circle cx="355" cy="232" r="1.7" fill="#C9A24B" opacity="0.52"/>
    <circle cx="389" cy="229" r="1.2" fill="#C9CDD2" opacity="0.89"/>
    <circle cx="420" cy="232" r="2.0" fill="#C9CDD2" opacity="0.49"/>
    <circle cx="449" cy="222" r="1.8" fill="#C9CDD2" opacity="0.70"/>
    <circle cx="485" cy="264" r="1.1" fill="#C9CDD2" opacity="0.66"/>
    <circle cx="500" cy="264" r="1.9" fill="#C9CDD2" opacity="0.88"/>
    <circle cx="523" cy="289" r="2.5" fill="#C9CDD2" opacity="0.70"/>
    <circle cx="555" cy="320" r="2.1" fill="#C9A24B" opacity="0.69"/>
    <circle cx="554" cy="361" r="1.9" fill="#C9CDD2" opacity="0.90"/>
    <circle cx="575" cy="399" r="2.6" fill="#C9A24B" opacity="0.58"/>
    <circle cx="578" cy="435" r="1.6" fill="#C9A24B" opacity="0.80"/>
    <circle cx="564" cy="476" r="1.8" fill="#C9A24B" opacity="0.50"/>
    <circle cx="564" cy="509" r="0.9" fill="#C9CDD2" opacity="0.60"/>
    <circle cx="541" cy="534" r="1.9" fill="#C9CDD2" opacity="0.64"/>
    <circle cx="515" cy="575" r="2.2" fill="#C9CDD2" opacity="0.75"/>
    <circle cx="493" cy="584" r="2.4" fill="#C9A24B" opacity="0.79"/>
    <circle cx="469" cy="623" r="1.0" fill="#C9CDD2" opacity="0.65"/>
    <circle cx="406" cy="655" r="1.1" fill="#C9A24B" opacity="0.86"/>
    <circle cx="374" cy="648" r="1.6" fill="#C9A24B" opacity="0.68"/>
    <circle cx="342" cy="664" r="2.1" fill="#C9A24B" opacity="0.58"/>
    <circle cx="310" cy="640" r="2.2" fill="#C9CDD2" opacity="0.81"/>
    <circle cx="279" cy="626" r="1.5" fill="#C9CDD2" opacity="0.75"/>
    <circle cx="255" cy="580" r="1.8" fill="#C9CDD2" opacity="0.75"/>
    <circle cx="254" cy="559" r="2.2" fill="#C9CDD2" opacity="0.59"/>
    <circle cx="220" cy="526" r="1.9" fill="#C9CDD2" opacity="0.55"/>
    <circle cx="219" cy="498" r="2.4" fill="#C9A24B" opacity="0.62"/>
    <circle cx="209" cy="457" r="2.1" fill="#C9A24B" opacity="0.70"/>
    <circle cx="209" cy="418" r="1.7" fill="#C9A24B" opacity="0.57"/>
    <circle cx="218" cy="383" r="2.3" fill="#C9A24B" opacity="0.38"/>
    <circle cx="229" cy="341" r="1.3" fill="#C9CDD2" opacity="0.63"/>
    <circle cx="225" cy="313" r="1.7" fill="#C9A24B" opacity="0.47"/>
    <circle cx="250" cy="292" r="1.5" fill="#C9CDD2" opacity="0.69"/>
    <circle cx="274" cy="256" r="0.9" fill="#C9CDD2" opacity="0.73"/>
    <circle cx="295" cy="224" r="1.4" fill="#C9CDD2" opacity="0.61"/>
    <circle cx="330" cy="203" r="1.4" fill="#C9A24B" opacity="0.45"/>
    <circle cx="362" cy="194" r="1.8" fill="#C9CDD2" opacity="0.85"/>
    <circle cx="394" cy="196" r="1.9" fill="#C9CDD2" opacity="0.75"/>
    <circle cx="426" cy="215" r="1.5" fill="#C9A24B" opacity="0.79"/>
    <circle cx="453" cy="202" r="2.0" fill="#C9CDD2" opacity="0.51"/>
    <circle cx="488" cy="241" r="1.7" fill="#C9A24B" opacity="0.71"/>
    <circle cx="510" cy="254" r="1.4" fill="#C9CDD2" opacity="0.79"/>
    <circle cx="532" cy="270" r="2.0" fill="#C9A24B" opacity="0.89"/>
    <circle cx="553" cy="307" r="2.3" fill="#C9A24B" opacity="0.87"/>
    <circle cx="588" cy="324" r="0.9" fill="#C9A24B" opacity="0.72"/>
    <circle cx="582" cy="368" r="1.1" fill="#C9A24B" opacity="0.82"/>
    <circle cx="580" cy="404" r="1.8" fill="#C9CDD2" opacity="0.75"/>
    <circle cx="604" cy="443" r="1.2" fill="#C9A24B" opacity="0.78"/>
    <circle cx="581" cy="483" r="2.0" fill="#C9A24B" opacity="0.55"/>
    <circle cx="570" cy="517" r="0.8" fill="#C9CDD2" opacity="0.86"/>
    <circle cx="556" cy="558" r="1.7" fill="#C9CDD2" opacity="0.77"/>
    <circle cx="557" cy="573" r="1.1" fill="#C9A24B" opacity="0.81"/>
    <circle cx="531" cy="597" r="1.6" fill="#C9CDD2" opacity="0.87"/>
    <circle cx="504" cy="615" r="1.9" fill="#C9CDD2" opacity="0.48"/>
    <circle cx="468" cy="633" r="2.0" fill="#C9A24B" opacity="0.87"/>
    <circle cx="439" cy="645" r="1.0" fill="#C9A24B" opacity="0.63"/>
    <circle cx="361" cy="678" r="0.8" fill="#C9A24B" opacity="0.39"/>
    <circle cx="333" cy="672" r="1.6" fill="#C9CDD2" opacity="0.38"/>
    <circle cx="298" cy="659" r="1.4" fill="#C9A24B" opacity="0.45"/>
    <circle cx="266" cy="644" r="1.2" fill="#C9A24B" opacity="0.89"/>
    <circle cx="249" cy="619" r="1.7" fill="#C9A24B" opacity="0.46"/>
    <circle cx="221" cy="577" r="1.1" fill="#C9A24B" opacity="0.69"/>
    <circle cx="214" cy="560" r="2.0" fill="#C9A24B" opacity="0.78"/>
    <circle cx="192" cy="515" r="1.6" fill="#C9A24B" opacity="0.51"/>
    <circle cx="179" cy="484" r="1.6" fill="#C9A24B" opacity="0.43"/>
    <circle cx="181" cy="447" r="1.5" fill="#C9CDD2" opacity="0.62"/>
    <circle cx="179" cy="410" r="2.0" fill="#C9CDD2" opacity="0.47"/>
    <circle cx="195" cy="375" r="1.7" fill="#C9CDD2" opacity="0.43"/>
    <circle cx="198" cy="338" r="1.1" fill="#C9CDD2" opacity="0.79"/>
    <circle cx="214" cy="303" r="2.0" fill="#C9CDD2" opacity="0.55"/>
    <circle cx="221" cy="277" r="2.0" fill="#C9CDD2" opacity="0.47"/>
    <circle cx="242" cy="255" r="1.3" fill="#C9A24B" opacity="0.55"/>
    <circle cx="275" cy="212" r="2.3" fill="#C9A24B" opacity="0.77"/>
    <circle cx="308" cy="191" r="1.3" fill="#C9A24B" opacity="0.45"/>
    <circle cx="328" cy="193" r="1.1" fill="#C9A24B" opacity="0.41"/>
    <circle cx="365" cy="183" r="0.8" fill="#C9A24B" opacity="0.85"/>
    <circle cx="393" cy="178" r="1.6" fill="#C9A24B" opacity="0.44"/>
    <circle cx="425" cy="160" r="2.1" fill="#C9A24B" opacity="0.66"/>
    <circle cx="453" cy="181" r="1.3" fill="#C9CDD2" opacity="0.49"/>
    <circle cx="480" cy="180" r="1.8" fill="#C9CDD2" opacity="0.88"/>
    <circle cx="510" cy="224" r="2.0" fill="#C9CDD2" opacity="0.68"/>
    <circle cx="538" cy="242" r="1.4" fill="#C9CDD2" opacity="0.54"/>
    <circle cx="552" cy="255" r="0.8" fill="#C9CDD2" opacity="0.85"/>
    <circle cx="582" cy="287" r="1.3" fill="#C9CDD2" opacity="0.86"/>
    <circle cx="609" cy="321" r="2.2" fill="#C9A24B" opacity="0.59"/>
    <circle cx="597" cy="355" r="0.8" fill="#C9A24B" opacity="0.81"/>
    <circle cx="616" cy="394" r="2.0" fill="#C9CDD2" opacity="0.36"/>
    <circle cx="614" cy="432" r="1.2" fill="#C9CDD2" opacity="0.54"/>
    <circle cx="611" cy="466" r="1.2" fill="#C9A24B" opacity="0.51"/>
    <circle cx="602" cy="509" r="1.9" fill="#C9A24B" opacity="0.87"/>
    <circle cx="604" cy="545" r="1.5" fill="#C9CDD2" opacity="0.50"/>
    <circle cx="578" cy="575" r="1.0" fill="#C9CDD2" opacity="0.43"/>
    <circle cx="557" cy="599" r="1.2" fill="#C9CDD2" opacity="0.48"/>
    <circle cx="544" cy="614" r="2.2" fill="#C9CDD2" opacity="0.40"/>
    <circle cx="506" cy="655" r="1.3" fill="#C9CDD2" opacity="0.69"/>
    <circle cx="485" cy="652" r="2.3" fill="#C9CDD2" opacity="0.50"/>
    <circle cx="454" cy="684" r="1.9" fill="#C9A24B" opacity="0.65"/>
    <circle cx="422" cy="704" r="1.7" fill="#C9A24B" opacity="0.58"/>
    <circle cx="391" cy="681" r="1.7" fill="#C9CDD2" opacity="0.65"/>
    <circle cx="313" cy="681" r="0.9" fill="#C9CDD2" opacity="0.36"/>
    <circle cx="279" cy="671" r="0.8" fill="#C9A24B" opacity="0.86"/>
    <circle cx="260" cy="660" r="0.9" fill="#C9A24B" opacity="0.44"/>
    <circle cx="232" cy="623" r="0.8" fill="#C9A24B" opacity="0.47"/>
    <circle cx="193" cy="606" r="1.8" fill="#C9A24B" opacity="0.83"/>
    <circle cx="175" cy="570" r="1.6" fill="#C9CDD2" opacity="0.73"/>
    <circle cx="181" cy="521" r="1.3" fill="#C9A24B" opacity="0.84"/>
    <circle cx="180" cy="495" r="0.9" fill="#C9CDD2" opacity="0.82"/>
    <circle cx="153" cy="455" r="2.0" fill="#C9A24B" opacity="0.77"/>
    <circle cx="157" cy="419" r="1.4" fill="#C9CDD2" opacity="0.85"/>
    <circle cx="164" cy="384" r="1.1" fill="#C9CDD2" opacity="0.42"/>
    <circle cx="184" cy="351" r="1.0" fill="#C9A24B" opacity="0.88"/>
    <circle cx="183" cy="307" r="1.1" fill="#C9A24B" opacity="0.49"/>
    <circle cx="196" cy="268" r="1.6" fill="#C9A24B" opacity="0.52"/>
    <circle cx="217" cy="247" r="1.3" fill="#C9CDD2" opacity="0.58"/>
    <circle cx="243" cy="218" r="0.9" fill="#C9CDD2" opacity="0.69"/>
    <circle cx="275" cy="210" r="1.4" fill="#C9CDD2" opacity="0.50"/>
    <circle cx="299" cy="160" r="2.1" fill="#C9CDD2" opacity="0.59"/>
    <circle cx="321" cy="169" r="1.4" fill="#C9CDD2" opacity="0.80"/>
    <circle cx="353" cy="151" r="1.8" fill="#C9A24B" opacity="0.63"/>
    <circle cx="385" cy="136" r="1.6" fill="#C9A24B" opacity="0.66"/>
    <circle cx="419" cy="168" r="0.8" fill="#C9A24B" opacity="0.55"/>
    <circle cx="453" cy="173" r="0.8" fill="#C9A24B" opacity="0.83"/>
    <circle cx="479" cy="146" r="1.1" fill="#C9A24B" opacity="0.60"/>
    <circle cx="516" cy="178" r="1.3" fill="#C9A24B" opacity="0.84"/>
    <circle cx="531" cy="214" r="1.1" fill="#C9A24B" opacity="0.85"/>
    <circle cx="569" cy="240" r="2.1" fill="#C9CDD2" opacity="0.54"/>
    <circle cx="583" cy="238" r="1.3" fill="#C9CDD2" opacity="0.71"/>
    <circle cx="603" cy="280" r="0.8" fill="#C9CDD2" opacity="0.43"/>
    <circle cx="632" cy="313" r="1.4" fill="#C9A24B" opacity="0.79"/>
    <circle cx="631" cy="351" r="2.0" fill="#C9CDD2" opacity="0.54"/>
    <circle cx="635" cy="387" r="1.3" fill="#C9CDD2" opacity="0.78"/>
    <circle cx="634" cy="423" r="0.8" fill="#C9CDD2" opacity="0.63"/>
    <circle cx="620" cy="458" r="1.9" fill="#C9CDD2" opacity="0.79"/>
    <circle cx="631" cy="498" r="1.0" fill="#C9CDD2" opacity="0.60"/>
    <circle cx="637" cy="540" r="1.9" fill="#C9CDD2" opacity="0.36"/>
    <circle cx="621" cy="575" r="1.2" fill="#C9CDD2" opacity="0.60"/>
    <circle cx="594" cy="594" r="2.0" fill="#C9A24B" opacity="0.74"/>
    <circle cx="569" cy="632" r="1.6" fill="#C9A24B" opacity="0.62"/>
    <circle cx="544" cy="635" r="0.7" fill="#C9CDD2" opacity="0.79"/>
    <circle cx="521" cy="687" r="1.6" fill="#C9A24B" opacity="0.74"/>
    <circle cx="495" cy="675" r="1.9" fill="#C9A24B" opacity="0.65"/>
    <circle cx="457" cy="701" r="1.1" fill="#C9A24B" opacity="0.54"/>
    <circle cx="431" cy="723" r="0.8" fill="#C9CDD2" opacity="0.70"/>
    <circle cx="398" cy="689" r="1.3" fill="#C9A24B" opacity="0.65"/>
    <circle cx="368" cy="712" r="1.0" fill="#C9CDD2" opacity="0.47"/>
    <circle cx="338" cy="681" r="1.3" fill="#C9CDD2" opacity="0.37"/>
    <circle cx="238" cy="690" r="1.4" fill="#C9CDD2" opacity="0.51"/>
    <circle cx="224" cy="659" r="1.9" fill="#C9A24B" opacity="0.63"/>
    <circle cx="199" cy="616" r="1.0" fill="#C9A24B" opacity="0.79"/>
    <circle cx="189" cy="611" r="1.0" fill="#C9A24B" opacity="0.61"/>
    <circle cx="153" cy="564" r="1.6" fill="#C9A24B" opacity="0.69"/>
    <circle cx="146" cy="527" r="1.2" fill="#C9CDD2" opacity="0.41"/>
    <circle cx="166" cy="492" r="0.8" fill="#C9CDD2" opacity="0.50"/>
    <circle cx="161" cy="457" r="0.8" fill="#C9A24B" opacity="0.71"/>
    <circle cx="146" cy="422" r="1.6" fill="#C9CDD2" opacity="0.67"/>
    <circle cx="125" cy="385" r="1.3" fill="#C9CDD2" opacity="0.70"/>
    <circle cx="131" cy="350" r="1.0" fill="#C9CDD2" opacity="0.86"/>
    <circle cx="160" cy="308" r="1.5" fill="#C9CDD2" opacity="0.42"/>
    <circle cx="182" cy="293" r="0.9" fill="#C9CDD2" opacity="0.76"/>
    <circle cx="197" cy="236" r="1.7" fill="#C9A24B" opacity="0.36"/>
    <circle cx="218" cy="214" r="1.7" fill="#C9A24B" opacity="0.38"/>
    <circle cx="229" cy="205" r="1.5" fill="#C9A24B" opacity="0.39"/>
    <circle cx="260" cy="159" r="1.4" fill="#C9A24B" opacity="0.90"/>
    <circle cx="294" cy="163" r="1.8" fill="#C9CDD2" opacity="0.46"/>
    <circle cx="311" cy="159" r="1.0" fill="#C9A24B" opacity="0.61"/>
    <circle cx="348" cy="122" r="0.7" fill="#C9CDD2" opacity="0.40"/>
    <circle cx="376" cy="111" r="1.7" fill="#C9A24B" opacity="0.59"/>
    <circle cx="407" cy="117" r="1.2" fill="#C9A24B" opacity="0.87"/>
    <circle cx="437" cy="143" r="1.3" fill="#C9A24B" opacity="0.39"/>
    <circle cx="465" cy="154" r="0.9" fill="#C9A24B" opacity="0.40"/>
    <circle cx="495" cy="156" r="1.6" fill="#C9CDD2" opacity="0.82"/>
    <circle cx="534" cy="160" r="1.7" fill="#C9A24B" opacity="0.85"/>
    <circle cx="563" cy="176" r="1.3" fill="#C9CDD2" opacity="0.38"/>
    <circle cx="580" cy="211" r="1.2" fill="#C9CDD2" opacity="0.39"/>
    <circle cx="584" cy="244" r="1.9" fill="#C9CDD2" opacity="0.58"/>
    <circle cx="608" cy="256" r="1.1" fill="#C9A24B" opacity="0.45"/>
    <circle cx="638" cy="287" r="1.1" fill="#C9A24B" opacity="0.83"/>
    <circle cx="663" cy="331" r="1.4" fill="#C9A24B" opacity="0.58"/>
    <circle cx="651" cy="363" r="1.0" fill="#C9A24B" opacity="0.50"/>
    <circle cx="643" cy="401" r="0.9" fill="#C9CDD2" opacity="0.86"/>
    <circle cx="649" cy="438" r="1.7" fill="#C9A24B" opacity="0.57"/>
    <circle cx="650" cy="471" r="0.8" fill="#C9A24B" opacity="0.90"/>
    <circle cx="649" cy="509" r="1.1" fill="#C9A24B" opacity="0.39"/>
    <circle cx="627" cy="547" r="1.4" fill="#C9CDD2" opacity="0.86"/>
    <circle cx="624" cy="572" r="1.8" fill="#C9CDD2" opacity="0.59"/>
    <circle cx="612" cy="621" r="0.9" fill="#C9CDD2" opacity="0.60"/>
    <circle cx="581" cy="645" r="1.2" fill="#C9A24B" opacity="0.67"/>
    <circle cx="555" cy="650" r="1.8" fill="#C9CDD2" opacity="0.66"/>
    <circle cx="550" cy="685" r="1.4" fill="#C9A24B" opacity="0.80"/>
    <circle cx="523" cy="688" r="1.0" fill="#C9CDD2" opacity="0.61"/>
    <circle cx="487" cy="707" r="1.5" fill="#C9A24B" opacity="0.81"/>
    <circle cx="452" cy="738" r="1.4" fill="#C9A24B" opacity="0.65"/>
    <circle cx="423" cy="716" r="0.9" fill="#C9CDD2" opacity="0.45"/>
    <circle cx="394" cy="734" r="0.8" fill="#C9A24B" opacity="0.59"/>
    <circle cx="361" cy="738" r="1.2" fill="#C9A24B" opacity="0.39"/>
    <circle cx="332" cy="739" r="1.7" fill="#C9A24B" opacity="0.36"/>
    <circle cx="297" cy="700" r="1.6" fill="#C9A24B" opacity="0.60"/>
    <circle cx="268" cy="692" r="1.4" fill="#C9A24B" opacity="0.36"/>
    <circle cx="197" cy="652" r="1.1" fill="#C9CDD2" opacity="0.62"/>
    <circle cx="187" cy="629" r="1.6" fill="#C9CDD2" opacity="0.47"/>
    <circle cx="153" cy="601" r="1.7" fill="#C9CDD2" opacity="0.78"/>
    <circle cx="148" cy="555" r="1.5" fill="#C9CDD2" opacity="0.49"/>
    <circle cx="124" cy="519" r="0.6" fill="#C9CDD2" opacity="0.57"/>
    <circle cx="127" cy="479" r="1.6" fill="#C9A24B" opacity="0.63"/>
    <circle cx="102" cy="447" r="1.0" fill="#C9A24B" opacity="0.74"/>
    <circle cx="107" cy="408" r="1.8" fill="#C9A24B" opacity="0.55"/>
    <circle cx="123" cy="369" r="1.1" fill="#C9CDD2" opacity="0.70"/>
    <circle cx="141" cy="337" r="1.2" fill="#C9A24B" opacity="0.49"/>
    <circle cx="151" cy="297" r="1.3" fill="#C9A24B" opacity="0.69"/>
    <circle cx="169" cy="271" r="0.6" fill="#C9CDD2" opacity="0.64"/>
    <circle cx="188" cy="231" r="1.8" fill="#C9CDD2" opacity="0.64"/>
    <circle cx="195" cy="195" r="0.9" fill="#C9CDD2" opacity="0.62"/>
    <circle cx="216" cy="189" r="1.5" fill="#C9CDD2" opacity="0.49"/>
    <circle cx="238" cy="139" r="1.5" fill="#C9CDD2" opacity="0.71"/>
    <circle cx="265" cy="145" r="1.6" fill="#C9A24B" opacity="0.36"/>
    <circle cx="290" cy="110" r="0.6" fill="#C9A24B" opacity="0.43"/>
    <circle cx="325" cy="132" r="1.7" fill="#C9A24B" opacity="0.74"/>
    <circle cx="354" cy="109" r="1.4" fill="#C9CDD2" opacity="0.56"/>
    <circle cx="386" cy="95" r="1.2" fill="#C9A24B" opacity="0.54"/>
    <circle cx="417" cy="105" r="1.0" fill="#C9A24B" opacity="0.49"/>
    <circle cx="452" cy="116" r="1.6" fill="#C9A24B" opacity="0.36"/>
    <circle cx="476" cy="134" r="1.7" fill="#C9A24B" opacity="0.86"/>
    <circle cx="503" cy="117" r="0.9" fill="#C9CDD2" opacity="0.88"/>
    <circle cx="538" cy="154" r="1.3" fill="#C9CDD2" opacity="0.63"/>
    <circle cx="573" cy="164" r="1.2" fill="#C9CDD2" opacity="0.56"/>
    <circle cx="602" cy="182" r="1.3" fill="#C9CDD2" opacity="0.71"/>
    <circle cx="626" cy="213" r="1.6" fill="#C9CDD2" opacity="0.37"/>
    <circle cx="625" cy="254" r="1.4" fill="#C9CDD2" opacity="0.36"/>
    <circle cx="647" cy="279" r="0.9" fill="#C9CDD2" opacity="0.81"/>
    <circle cx="644" cy="312" r="0.9" fill="#C9A24B" opacity="0.65"/>
    <circle cx="657" cy="344" r="0.8" fill="#C9CDD2" opacity="0.56"/>
    <circle cx="673" cy="380" r="1.2" fill="#C9A24B" opacity="0.82"/>
    <circle cx="695" cy="414" r="1.7" fill="#C9A24B" opacity="0.64"/>
    <circle cx="678" cy="452" r="1.5" fill="#C9A24B" opacity="0.50"/>
    <circle cx="658" cy="491" r="0.8" fill="#C9A24B" opacity="0.76"/>
    <circle cx="659" cy="527" r="1.4" fill="#C9CDD2" opacity="0.88"/>
    <circle cx="670" cy="552" r="1.4" fill="#C9A24B" opacity="0.73"/>
    <circle cx="659" cy="602" r="1.7" fill="#C9A24B" opacity="0.60"/>
    <circle cx="636" cy="629" r="0.7" fill="#C9A24B" opacity="0.58"/>
    <circle cx="623" cy="664" r="1.3" fill="#C9CDD2" opacity="0.55"/>
    <circle cx="572" cy="677" r="1.7" fill="#C9A24B" opacity="0.55"/>
    <circle cx="564" cy="708" r="1.1" fill="#C9CDD2" opacity="0.57"/>
    <circle cx="529" cy="714" r="1.3" fill="#C9CDD2" opacity="0.61"/>
    <circle cx="506" cy="746" r="1.2" fill="#C9CDD2" opacity="0.38"/>
    <circle cx="481" cy="745" r="1.0" fill="#C9A24B" opacity="0.72"/>
    <circle cx="444" cy="775" r="1.6" fill="#C9CDD2" opacity="0.46"/>
    <circle cx="413" cy="769" r="1.6" fill="#C9CDD2" opacity="0.82"/>
    <circle cx="382" cy="752" r="0.7" fill="#C9CDD2" opacity="0.80"/>
    <circle cx="352" cy="782" r="1.3" fill="#C9A24B" opacity="0.51"/>
    <circle cx="324" cy="759" r="1.0" fill="#C9CDD2" opacity="0.75"/>
    <circle cx="283" cy="744" r="1.7" fill="#C9A24B" opacity="0.55"/>
    <circle cx="255" cy="719" r="1.5" fill="#C9A24B" opacity="0.56"/>
    <circle cx="241" cy="705" r="1.0" fill="#C9CDD2" opacity="0.59"/>
    <circle cx="223" cy="663" r="0.7" fill="#C9CDD2" opacity="0.67"/>
    <circle cx="123" cy="609" r="1.4" fill="#C9A24B" opacity="0.62"/>
    <circle cx="105" cy="572" r="1.3" fill="#C9A24B" opacity="0.48"/>
    <circle cx="107" cy="529" r="1.0" fill="#C9A24B" opacity="0.51"/>
    <circle cx="112" cy="493" r="0.7" fill="#C9CDD2" opacity="0.53"/>
    <circle cx="89" cy="458" r="1.3" fill="#C9CDD2" opacity="0.41"/>
    <circle cx="86" cy="423" r="1.2" fill="#C9A24B" opacity="0.49"/>
    <circle cx="119" cy="382" r="1.1" fill="#C9CDD2" opacity="0.42"/>
    <circle cx="103" cy="345" r="0.7" fill="#C9A24B" opacity="0.84"/>
    <circle cx="101" cy="313" r="0.8" fill="#C9CDD2" opacity="0.53"/>
    <circle cx="113" cy="277" r="1.3" fill="#C9CDD2" opacity="0.86"/>
    <circle cx="152" cy="256" r="1.0" fill="#C9CDD2" opacity="0.68"/>
    <circle cx="154" cy="200" r="0.8" fill="#C9A24B" opacity="0.66"/>
    <circle cx="170" cy="180" r="0.7" fill="#C9A24B" opacity="0.53"/>
    <circle cx="205" cy="144" r="1.2" fill="#C9CDD2" opacity="0.59"/>
    <circle cx="235" cy="139" r="1.5" fill="#C9CDD2" opacity="0.58"/>
    <circle cx="251" cy="115" r="1.3" fill="#C9A24B" opacity="0.82"/>
    <circle cx="473" cy="99" r="1.5" fill="#C9CDD2" opacity="0.87"/>
    <circle cx="498" cy="109" r="1.3" fill="#C9CDD2" opacity="0.43"/>
    <circle cx="534" cy="121" r="1.3" fill="#C9CDD2" opacity="0.61"/>
    <circle cx="567" cy="115" r="1.5" fill="#C9A24B" opacity="0.77"/>
    <circle cx="577" cy="145" r="1.1" fill="#C9A24B" opacity="0.42"/>
    <circle cx="620" cy="148" r="0.9" fill="#C9A24B" opacity="0.54"/>
    <circle cx="635" cy="197" r="1.3" fill="#C9CDD2" opacity="0.74"/>
    <circle cx="642" cy="240" r="1.5" fill="#C9A24B" opacity="0.63"/>
    <circle cx="684" cy="250" r="1.6" fill="#C9A24B" opacity="0.47"/>
    <circle cx="698" cy="291" r="0.9" fill="#C9A24B" opacity="0.60"/>
    <circle cx="682" cy="322" r="1.6" fill="#C9CDD2" opacity="0.36"/>
    <circle cx="709" cy="365" r="1.2" fill="#C9A24B" opacity="0.61"/>
    <circle cx="689" cy="400" r="1.3" fill="#C9A24B" opacity="0.58"/>
    <circle cx="707" cy="438" r="1.5" fill="#C9CDD2" opacity="0.64"/>
    <circle cx="683" cy="472" r="1.5" fill="#C9A24B" opacity="0.82"/>
    <circle cx="675" cy="512" r="1.5" fill="#C9CDD2" opacity="0.89"/>
    <circle cx="699" cy="546" r="0.6" fill="#C9CDD2" opacity="0.58"/>
    <circle cx="676" cy="581" r="0.7" fill="#C9CDD2" opacity="0.43"/>
    <circle cx="662" cy="625" r="1.5" fill="#C9A24B" opacity="0.61"/>
    <circle cx="642" cy="645" r="1.5" fill="#C9A24B" opacity="0.40"/>
    <circle cx="627" cy="664" r="1.3" fill="#C9CDD2" opacity="0.82"/>
    <circle cx="594" cy="709" r="0.7" fill="#C9A24B" opacity="0.73"/>
    <circle cx="571" cy="737" r="0.8" fill="#C9CDD2" opacity="0.57"/>
    <circle cx="545" cy="730" r="1.2" fill="#C9CDD2" opacity="0.65"/>
    <circle cx="512" cy="747" r="1.0" fill="#C9CDD2" opacity="0.81"/>
    <circle cx="483" cy="781" r="0.8" fill="#C9A24B" opacity="0.56"/>
    <circle cx="454" cy="796" r="1.4" fill="#C9A24B" opacity="0.90"/>
    <circle cx="423" cy="809" r="0.7" fill="#C9CDD2" opacity="0.87"/>
    <circle cx="393" cy="771" r="1.4" fill="#C9A24B" opacity="0.55"/>
    <circle cx="364" cy="780" r="0.6" fill="#C9CDD2" opacity="0.87"/>
    <circle cx="333" cy="752" r="1.2" fill="#C9CDD2" opacity="0.74"/>
    <circle cx="305" cy="788" r="1.4" fill="#C9A24B" opacity="0.41"/>
    <circle cx="264" cy="760" r="1.0" fill="#C9A24B" opacity="0.51"/>
    <circle cx="247" cy="731" r="0.7" fill="#C9CDD2" opacity="0.73"/>
    <circle cx="220" cy="694" r="1.2" fill="#C9CDD2" opacity="0.81"/>
    <circle cx="177" cy="698" r="0.8" fill="#C9A24B" opacity="0.79"/>
    <circle cx="188" cy="654" r="1.4" fill="#C9A24B" opacity="0.69"/>
    <circle cx="169" cy="638" r="0.8" fill="#C9A24B" opacity="0.51"/>
    <circle cx="94" cy="544" r="1.2" fill="#C9A24B" opacity="0.46"/>
    <circle cx="101" cy="501" r="1.0" fill="#C9A24B" opacity="0.71"/>
    <circle cx="64" cy="462" r="1.0" fill="#C9A24B" opacity="0.60"/>
    <circle cx="80" cy="427" r="1.1" fill="#C9CDD2" opacity="0.61"/>
    <circle cx="62" cy="388" r="1.4" fill="#C9CDD2" opacity="0.72"/>
    <circle cx="93" cy="347" r="1.5" fill="#C9CDD2" opacity="0.47"/>
    <circle cx="64" cy="310" r="0.7" fill="#C9A24B" opacity="0.86"/>
    <circle cx="113" cy="286" r="1.1" fill="#C9A24B" opacity="0.50"/>
    <circle cx="120" cy="260" r="0.8" fill="#C9A24B" opacity="0.88"/>
    <circle cx="144" cy="200" r="0.7" fill="#C9A24B" opacity="0.65"/>
    <circle cx="146" cy="201" r="0.5" fill="#C9A24B" opacity="0.53"/>
    <circle cx="159" cy="166" r="0.5" fill="#C9A24B" opacity="0.49"/>
    <circle cx="198" cy="124" r="0.7" fill="#C9CDD2" opacity="0.66"/>
    <circle cx="243" cy="91" r="0.9" fill="#C9A24B" opacity="0.55"/>
    <circle cx="265" cy="102" r="1.1" fill="#C9CDD2" opacity="0.85"/>
    <circle cx="574" cy="106" r="1.2" fill="#C9A24B" opacity="0.40"/>
    <circle cx="613" cy="129" r="1.4" fill="#C9CDD2" opacity="0.66"/>
    <circle cx="628" cy="153" r="0.7" fill="#C9A24B" opacity="0.88"/>
    <circle cx="635" cy="168" r="0.5" fill="#C9CDD2" opacity="0.51"/>
    <circle cx="654" cy="190" r="1.0" fill="#C9CDD2" opacity="0.78"/>
    <circle cx="683" cy="252" r="0.9" fill="#C9A24B" opacity="0.73"/>
    <circle cx="713" cy="281" r="1.1" fill="#C9CDD2" opacity="0.50"/>
    <circle cx="696" cy="307" r="1.2" fill="#C9CDD2" opacity="0.66"/>
    <circle cx="693" cy="345" r="1.2" fill="#C9A24B" opacity="0.89"/>
    <circle cx="713" cy="382" r="1.1" fill="#C9CDD2" opacity="0.78"/>
    <circle cx="739" cy="416" r="1.2" fill="#C9A24B" opacity="0.68"/>
    <circle cx="724" cy="453" r="1.4" fill="#C9CDD2" opacity="0.69"/>
    <circle cx="697" cy="492" r="1.4" fill="#C9A24B" opacity="0.79"/>
    <circle cx="702" cy="528" r="1.4" fill="#C9CDD2" opacity="0.70"/>
    <circle cx="684" cy="568" r="0.9" fill="#C9CDD2" opacity="0.44"/>
    <circle cx="700" cy="591" r="0.9" fill="#C9A24B" opacity="0.75"/>
    <circle cx="661" cy="643" r="1.1" fill="#C9CDD2" opacity="0.89"/>
    <circle cx="666" cy="663" r="0.9" fill="#C9CDD2" opacity="0.63"/>
    <circle cx="646" cy="707" r="0.5" fill="#C9CDD2" opacity="0.75"/>
    <circle cx="637" cy="724" r="0.6" fill="#C9CDD2" opacity="0.57"/>
    <circle cx="586" cy="720" r="1.0" fill="#C9CDD2" opacity="0.64"/>
    <circle cx="571" cy="738" r="1.2" fill="#C9CDD2" opacity="0.89"/>
    <circle cx="539" cy="804" r="0.5" fill="#C9CDD2" opacity="0.48"/>
    <circle cx="514" cy="766" r="1.2" fill="#C9CDD2" opacity="0.82"/>
    <circle cx="487" cy="821" r="1.4" fill="#C9CDD2" opacity="0.70"/>
    <circle cx="451" cy="829" r="0.6" fill="#C9A24B" opacity="0.71"/>
    <circle cx="420" cy="797" r="1.2" fill="#C9CDD2" opacity="0.63"/>
    <circle cx="389" cy="827" r="0.5" fill="#C9CDD2" opacity="0.46"/>
    <circle cx="355" cy="821" r="1.1" fill="#C9A24B" opacity="0.81"/>
    <circle cx="322" cy="833" r="1.1" fill="#C9CDD2" opacity="0.40"/>
    <circle cx="297" cy="813" r="1.4" fill="#C9CDD2" opacity="0.88"/>
    <circle cx="268" cy="785" r="1.0" fill="#C9A24B" opacity="0.90"/>
    <circle cx="243" cy="779" r="0.9" fill="#C9CDD2" opacity="0.81"/>
    <circle cx="223" cy="757" r="0.8" fill="#C9CDD2" opacity="0.38"/>
    <circle cx="197" cy="737" r="0.6" fill="#C9A24B" opacity="0.45"/>
    <circle cx="156" cy="687" r="1.0" fill="#C9A24B" opacity="0.63"/>
    <circle cx="155" cy="657" r="0.6" fill="#C9A24B" opacity="0.81"/>
    <circle cx="110" cy="641" r="1.1" fill="#C9A24B" opacity="0.72"/>
    <circle cx="129" cy="614" r="1.4" fill="#C9A24B" opacity="0.55"/>
    <circle cx="81" cy="579" r="1.1" fill="#C9A24B" opacity="0.48"/>
    <circle cx="61" cy="457" r="1.1" fill="#C9CDD2" opacity="0.73"/>
    <circle cx="65" cy="383" r="1.2" fill="#C9A24B" opacity="0.40"/>
    <circle cx="81" cy="267" r="0.4" fill="#C9CDD2" opacity="0.46"/>
    <circle cx="75" cy="248" r="0.6" fill="#C9CDD2" opacity="0.61"/>
    <circle cx="104" cy="223" r="0.9" fill="#C9A24B" opacity="0.78"/>
    <circle cx="147" cy="158" r="0.5" fill="#C9CDD2" opacity="0.62"/>
    <circle cx="151" cy="136" r="1.3" fill="#C9CDD2" opacity="0.85"/>
    <circle cx="176" cy="139" r="1.1" fill="#C9A24B" opacity="0.87"/>
    <circle cx="195" cy="115" r="0.9" fill="#C9CDD2" opacity="0.47"/>
    <circle cx="623" cy="102" r="0.7" fill="#C9A24B" opacity="0.42"/>
    <circle cx="634" cy="118" r="1.3" fill="#C9CDD2" opacity="0.57"/>
    <circle cx="649" cy="149" r="0.9" fill="#C9A24B" opacity="0.39"/>
    <circle cx="682" cy="192" r="0.8" fill="#C9CDD2" opacity="0.44"/>
    <circle cx="689" cy="205" r="0.6" fill="#C9A24B" opacity="0.56"/>
    <circle cx="697" cy="232" r="0.8" fill="#C9A24B" opacity="0.44"/>
    <circle cx="732" cy="276" r="1.0" fill="#C9A24B" opacity="0.62"/>
    <circle cx="715" cy="319" r="0.8" fill="#C9A24B" opacity="0.86"/>
    <circle cx="712" cy="533" r="0.5" fill="#C9A24B" opacity="0.37"/>
    <circle cx="700" cy="611" r="0.9" fill="#C9A24B" opacity="0.39"/>
    <circle cx="683" cy="623" r="0.6" fill="#C9CDD2" opacity="0.86"/>
    <circle cx="691" cy="665" r="0.8" fill="#C9A24B" opacity="0.77"/>
    <circle cx="647" cy="716" r="1.1" fill="#C9CDD2" opacity="0.63"/>
    <circle cx="631" cy="721" r="1.1" fill="#C9CDD2" opacity="0.77"/>
    <circle cx="618" cy="756" r="0.9" fill="#C9CDD2" opacity="0.89"/>
    <circle cx="591" cy="789" r="1.2" fill="#C9CDD2" opacity="0.49"/>
    <circle cx="564" cy="790" r="1.1" fill="#C9A24B" opacity="0.70"/>
    <circle cx="546" cy="817" r="0.9" fill="#C9CDD2" opacity="0.49"/>
    <circle cx="508" cy="826" r="0.6" fill="#C9CDD2" opacity="0.59"/>
    <circle cx="473" cy="845" r="1.3" fill="#C9A24B" opacity="0.47"/>
    <circle cx="447" cy="865" r="1.0" fill="#C9A24B" opacity="0.67"/>
    <circle cx="413" cy="847" r="0.7" fill="#C9CDD2" opacity="0.79"/>
    <circle cx="383" cy="812" r="0.5" fill="#C9A24B" opacity="0.67"/>
    <circle cx="353" cy="860" r="0.8" fill="#C9A24B" opacity="0.84"/>
    <circle cx="319" cy="805" r="0.6" fill="#C9CDD2" opacity="0.77"/>
    <circle cx="285" cy="794" r="0.8" fill="#C9A24B" opacity="0.58"/>
    <circle cx="260" cy="828" r="0.8" fill="#C9CDD2" opacity="0.88"/>
    <circle cx="237" cy="773" r="0.9" fill="#C9CDD2" opacity="0.74"/>
    <circle cx="211" cy="783" r="1.1" fill="#C9CDD2" opacity="0.44"/>
    <circle cx="180" cy="733" r="0.7" fill="#C9A24B" opacity="0.60"/>
    <circle cx="150" cy="735" r="0.8" fill="#C9A24B" opacity="0.70"/>
    <circle cx="134" cy="709" r="0.9" fill="#C9A24B" opacity="0.70"/>
    <circle cx="134" cy="655" r="1.0" fill="#C9A24B" opacity="0.36"/>
    <circle cx="103" cy="623" r="0.5" fill="#C9CDD2" opacity="0.35"/>
    <circle cx="91" cy="598" r="1.0" fill="#C9CDD2" opacity="0.51"/>
    <circle cx="80" cy="558" r="1.2" fill="#C9A24B" opacity="0.71"/>
    <circle cx="70" cy="536" r="0.5" fill="#C9A24B" opacity="0.86"/>
    <circle cx="79" cy="244" r="0.9" fill="#C9CDD2" opacity="0.37"/>
    <circle cx="80" cy="209" r="0.5" fill="#C9CDD2" opacity="0.86"/>
    <circle cx="74" cy="206" r="0.8" fill="#C9CDD2" opacity="0.89"/>
    <circle cx="122" cy="156" r="1.1" fill="#C9A24B" opacity="0.41"/>
    <circle cx="118" cy="124" r="0.9" fill="#C9CDD2" opacity="0.53"/>
    <circle cx="152" cy="124" r="1.1" fill="#C9CDD2" opacity="0.40"/>
    <circle cx="168" cy="105" r="0.8" fill="#C9A24B" opacity="0.80"/>
    <circle cx="646" cy="123" r="0.6" fill="#C9A24B" opacity="0.87"/>
    <circle cx="663" cy="107" r="0.8" fill="#C9CDD2" opacity="0.42"/>
    <circle cx="705" cy="130" r="0.8" fill="#C9A24B" opacity="0.40"/>
    <circle cx="705" cy="200" r="0.5" fill="#C9CDD2" opacity="0.40"/>
    <circle cx="711" cy="224" r="0.9" fill="#C9A24B" opacity="0.57"/>
    <circle cx="721" cy="233" r="0.4" fill="#C9CDD2" opacity="0.37"/>
    <circle cx="737" cy="565" r="0.7" fill="#C9CDD2" opacity="0.35"/>
    <circle cx="716" cy="626" r="1.1" fill="#C9A24B" opacity="0.71"/>
    <circle cx="709" cy="679" r="0.8" fill="#C9CDD2" opacity="0.55"/>
    <circle cx="697" cy="703" r="0.6" fill="#C9CDD2" opacity="0.41"/>
    <circle cx="666" cy="720" r="0.4" fill="#C9CDD2" opacity="0.62"/>
    <circle cx="635" cy="745" r="1.1" fill="#C9CDD2" opacity="0.71"/>
    <circle cx="623" cy="755" r="0.4" fill="#C9A24B" opacity="0.62"/>
    <circle cx="591" cy="806" r="0.8" fill="#C9A24B" opacity="0.54"/>
    <circle cx="565" cy="832" r="0.7" fill="#C9CDD2" opacity="0.84"/>
    <circle cx="548" cy="843" r="0.5" fill="#C9CDD2" opacity="0.37"/>
    <circle cx="517" cy="856" r="1.0" fill="#C9A24B" opacity="0.45"/>
    <circle cx="480" cy="866" r="0.7" fill="#C9CDD2" opacity="0.64"/>
    <circle cx="453" cy="860" r="0.5" fill="#C9A24B" opacity="0.41"/>
    <circle cx="421" cy="842" r="0.8" fill="#C9A24B" opacity="0.68"/>
    <circle cx="388" cy="876" r="0.5" fill="#C9A24B" opacity="0.64"/>
    <circle cx="355" cy="857" r="0.6" fill="#C9A24B" opacity="0.81"/>
    <circle cx="323" cy="888" r="0.9" fill="#C9CDD2" opacity="0.64"/>
    <circle cx="303" cy="861" r="0.8" fill="#C9CDD2" opacity="0.55"/>
    <circle cx="276" cy="813" r="0.9" fill="#C9A24B" opacity="0.49"/>
    <circle cx="229" cy="840" r="0.8" fill="#C9A24B" opacity="0.46"/>
    <circle cx="197" cy="816" r="0.7" fill="#C9A24B" opacity="0.81"/>
    <circle cx="192" cy="774" r="0.5" fill="#C9CDD2" opacity="0.64"/>
    <circle cx="162" cy="785" r="1.0" fill="#C9A24B" opacity="0.39"/>
    <circle cx="146" cy="716" r="0.5" fill="#C9CDD2" opacity="0.81"/>
    <circle cx="126" cy="730" r="0.5" fill="#C9CDD2" opacity="0.39"/>
    <circle cx="113" cy="673" r="1.1" fill="#C9A24B" opacity="0.62"/>
    <circle cx="81" cy="660" r="0.8" fill="#C9A24B" opacity="0.64"/>
    <circle cx="305" cy="370" r="34" fill="none" stroke="#E6C87A" stroke-width="1.6" opacity="0.85" stroke-dasharray="2 7"/>
    <circle cx="495" cy="370" r="34" fill="none" stroke="#E6C87A" stroke-width="1.6" opacity="0.85" stroke-dasharray="2 7"/></g>

  <g stroke="#C9A24B" stroke-width="1.5" fill="none" opacity="0.9">
    <path d="M40 110 V40 H110"/>
    <path d="M690 40 H760 V110"/>
    <path d="M760 890 V960 H690"/>
    <path d="M110 960 H40 V890"/>
  </g>

  <g text-anchor="middle" font-family='"Shippori Mincho","Yu Mincho","Hiragino Mincho ProN",serif'>
    <text x="400.0" y="492.0" font-size="44" fill="#F2EBDC"
          letter-spacing="6">《己》</text>
    <text x="400.0" y="552.0" font-size="22" fill="#F2EBDC"
          opacity="0.66" letter-spacing="8">写真差し替え予定</text>
  </g>
</svg>
