<svg xmlns="http://www.w3.org/2000/svg" viewBox="0 0 800 1000" role="img">
  <rect width="800" height="1000" fill="#1E1813"/>
  <g><path d="M100 200 Q 400.0 81.45353585175582 700 200" fill="none" stroke="#C9A24B" stroke-width="1.4" opacity="0.72"/>
    <path d="M100 278 Q 400.0 369.7682995447275 700 278" fill="none" stroke="#C9A24B" stroke-width="1.3" opacity="0.32"/>
    <path d="M100 356 Q 400.0 241.00735799952056 700 356" fill="none" stroke="#C9A24B" stroke-width="1.4" opacity="0.57"/>
    <path d="M100 434 Q 400.0 558.3236152906444 700 434" fill="none" stroke="#C9A24B" stroke-width="1.9" opacity="0.63"/>
    <path d="M100 512 Q 400.0 373.81164943795477 700 512" fill="none" stroke="#C9A24B" stroke-width="2.1" opacity="0.62"/>
    <path d="M100 590 Q 400.0 660.1618298135086 700 590" fill="none" stroke="#C9A24B" stroke-width="2.0" opacity="0.62"/>
    <path d="M100 668 Q 400.0 549.9041732960662 700 668" fill="none" stroke="#C9A24B" stroke-width="1.4" opacity="0.59"/>
    <path d="M100 746 Q 400.0 848.6903555358986 700 746" fill="none" stroke="#C9A24B" stroke-width="2.2" opacity="0.56"/>
    <path d="M100 824 Q 400.0 745.9549393897136 700 824" fill="none" stroke="#C9A24B" stroke-width="2.4" opacity="0.50"/></g>

  <g stroke="#C9A24B" stroke-width="1.5" fill="none" opacity="0.9">
    <path d="M40 110 V40 H110"/>
    <path d="M690 40 H760 V110"/>
    <path d="M760 890 V960 H690"/>
    <path d="M110 960 H40 V890"/>
  </g>

  <g text-anchor="middle" font-family='"Shippori Mincho","Yu Mincho","Hiragino Mincho ProN",serif'>
    <text x="400.0" y="492.0" font-size="44" fill="#F2EBDC"
          letter-spacing="6">《優》</text>
    <text x="400.0" y="552.0" font-size="22" fill="#F2EBDC"
          opacity="0.66" letter-spacing="8">写真差し替え予定</text>
  </g>
</svg>
